<svg version="1.1" id="Layer_1" xmlns="http://www.w3.org/2000/svg" xmlns:xlink="http://www.w3.org/1999/xlink" x="0px" y="0px"
	 width="100%" viewBox="0 0 1024 560" enable-background="new 0 0 1024 560" xml:space="preserve">
<path fill="#FFF" opacity="1.000000" stroke="none" 
	d="
M915.156860,374.897003 
	C936.237427,403.056732 931.664062,437.498993 904.642822,459.641205 
	C894.213257,468.187592 883.496521,474.878876 869.473999,475.565674 
	C855.952026,476.227905 843.398132,473.945984 831.596680,467.220306 
	C800.588867,449.548950 770.896240,429.814575 741.280518,409.952881 
	C739.505188,408.762238 737.901611,407.214081 735.648987,406.793518 
	C685.021301,490.818726 612.320984,539.108826 512.745972,538.991882 
	C413.405151,538.875183 340.664490,490.967377 290.182159,406.497375 
	C284.837036,409.000824 280.192078,412.789276 275.261719,416.090179 
	C247.291595,434.815887 219.439514,453.827759 189.506302,469.265106 
	C170.146683,479.249359 149.882507,479.092529 131.004486,467.080048 
	C116.512199,457.858276 104.373962,446.033600 99.859428,428.783875 
	C92.874260,402.094025 101.302040,380.293488 122.542755,363.174286 
	C127.686363,359.028717 133.013443,355.110840 138.816864,350.658020 
	C134.947052,347.827484 131.624466,345.412598 128.317947,342.975861 
	C118.586502,335.804230 109.606262,327.946594 104.056282,316.871674 
	C91.767899,292.350281 95.582275,259.105408 121.572388,239.205780 
	C127.090584,234.980713 132.652252,230.812408 138.438232,226.433029 
	C135.441193,222.967987 131.932022,221.024918 128.752731,218.698013 
	C115.582520,209.058731 104.110504,197.870453 99.889023,181.551071 
	C93.215767,155.753601 100.737579,134.902557 122.876236,115.498436 
	C143.330856,97.570343 175.469177,98.773178 195.284714,110.344246 
	C225.384796,127.920845 254.535339,146.927887 283.462677,166.318588 
	C285.648438,167.783768 287.952850,169.071945 290.552582,170.655960 
	C296.056824,161.299973 301.234253,152.208878 307.401123,143.745941 
	C345.329315,91.696159 395.013000,56.568974 458.313507,43.580299 
	C551.029480,24.555847 630.879578,49.986370 696.987366,117.729408 
	C710.991638,132.080032 722.650757,148.394623 732.208374,166.082535 
	C734.394775,170.128754 736.228149,170.630875 740.151123,167.965927 
	C769.923035,147.741348 799.992310,127.999611 831.207947,110.003563 
	C852.211914,97.894615 883.227844,97.103523 904.861877,117.154793 
	C922.642395,133.634537 931.679932,152.584351 927.186584,176.771805 
	C923.999817,193.926086 913.444580,206.407181 899.813416,216.578476 
	C895.823486,219.555634 891.814392,222.507065 887.629944,225.606689 
	C889.078369,228.386795 891.484619,229.621780 893.589844,231.129089 
	C902.288391,237.357315 910.660400,243.929810 917.074158,252.650391 
	C935.898193,278.244965 931.100769,315.883331 906.358887,335.945251 
	C900.308838,340.850922 894.017822,345.459503 887.220947,350.678192 
	C896.802185,358.728943 907.316895,365.061798 915.156860,374.897003 
M377.736633,457.746490 
	C379.193604,458.856964 380.635406,459.987946 382.109711,461.074860 
	C437.831726,502.154114 499.738312,514.753113 566.595215,498.163300 
	C618.605530,485.257477 660.351868,455.748108 691.030396,411.563507 
	C721.801758,367.245178 734.098083,317.840820 728.419678,264.302704 
	C724.651550,228.775360 712.060425,196.303543 691.990051,166.583969 
	C644.516418,96.286377 556.228333,59.340008 473.088715,75.635277 
	C420.742859,85.894997 377.149048,111.432762 343.940094,153.164703 
	C301.629059,206.334747 287.372284,267.049530 300.891663,333.474854 
	C311.117340,383.716705 337.334656,424.906464 377.736633,457.746490 
M157.700363,196.746597 
	C159.974213,198.696609 162.389297,200.505630 164.499222,202.619308 
	C179.371567,217.518265 178.384689,238.605042 162.096848,252.026596 
	C156.704376,256.470062 150.937042,260.455566 145.411392,264.741089 
	C137.164383,271.137268 131.285629,278.623932 132.160355,290.035736 
	C132.703400,297.120636 135.342148,302.806366 140.287933,307.683075 
	C146.849609,314.153137 154.902893,318.714813 161.856461,324.677856 
	C179.008392,339.386505 179.607895,359.873688 163.378616,375.494385 
	C156.748047,381.876312 148.632217,386.344086 141.764542,392.426453 
	C134.817734,398.578827 131.216125,405.988708 132.391907,415.426361 
	C133.349625,423.113708 138.136124,428.281311 143.638748,433.088074 
	C154.475861,442.554657 164.487183,443.947998 176.930222,436.936279 
	C209.899780,418.357666 241.226318,397.182129 272.610535,376.098022 
	C275.635895,374.065582 275.766144,372.032776 274.679443,368.962860 
	C268.546600,351.637665 264.653748,333.758514 262.818481,315.512299 
	C259.453308,282.055878 262.096588,249.082138 271.733826,216.747360 
	C273.043152,212.354385 276.692078,207.785889 274.962006,203.553970 
	C273.271912,199.419754 267.875946,197.810440 264.026886,195.232269 
	C235.108154,175.862076 206.205994,156.460632 175.748932,139.525482 
	C172.353058,137.637268 168.744141,136.749435 164.892929,136.132889 
	C154.971970,134.544571 148.184891,139.723114 141.444992,145.786285 
	C129.218292,156.785355 128.753510,172.789429 140.957184,183.769196 
	C146.016647,188.321213 151.723526,192.153610 157.700363,196.746597 
M761.696106,324.998047 
	C759.723328,339.545746 756.407166,353.803436 751.546753,367.632812 
	C749.877808,372.381470 751.086121,374.784180 755.033691,377.401337 
	C772.799622,389.179871 790.390015,401.220001 808.403992,412.627319 
	C822.054260,421.271332 835.743347,429.847992 849.928894,437.587036 
	C857.978149,441.978394 866.590637,442.667847 874.817993,438.639038 
	C880.166626,436.019958 884.559387,431.626801 888.304382,426.895447 
	C893.244812,420.653900 894.865051,413.622681 892.773438,405.773315 
	C890.602295,397.625458 884.598511,392.626740 878.356506,387.843048 
	C873.073120,383.793976 867.379822,380.274414 862.494385,375.711182 
	C857.287109,370.847290 853.275452,365.223145 851.692505,358.117157 
	C848.335938,343.049683 854.621521,331.877930 866.062683,322.887207 
	C871.167542,318.875732 876.571899,315.243744 881.649719,311.200165 
	C886.512512,307.327881 890.924927,302.906342 892.578064,296.659882 
	C895.450867,285.804840 893.465210,276.027802 884.709045,268.523743 
	C878.396729,263.114166 871.472473,258.425385 865.023743,253.166718 
	C853.988708,244.168015 848.442871,232.881638 851.772095,218.413116 
	C853.862610,209.327927 859.867859,202.960052 867.053650,197.479553 
	C873.535950,192.535645 880.501343,188.180191 886.208923,182.275345 
	C893.167480,175.076355 895.610107,166.659714 892.224182,157.041183 
	C887.867615,144.665344 873.859436,135.576492 860.821289,136.238037 
	C855.428101,136.511688 850.940796,138.966827 846.448792,141.518921 
	C814.707642,159.552551 784.520142,180.021729 754.170532,200.244781 
	C750.531311,202.669739 750.032898,205.040695 751.361755,208.950531 
	C764.118225,246.484802 767.398804,284.918030 761.696106,324.998047 
z"/>
<path fill="#fff" opacity="1.000000" stroke="none" 
	d="
M357.580994,217.671326 
	C378.273682,174.639847 410.695618,144.916977 455.120544,128.461105 
	C474.968994,121.108856 495.587219,117.739548 516.751831,117.998665 
	C524.466003,118.093109 530.750732,121.046150 533.972290,128.551682 
	C536.689392,134.881912 536.081421,140.982315 531.615417,146.345078 
	C527.486450,151.303131 521.918823,153.004333 515.580444,152.941605 
	C498.801208,152.775497 482.391357,155.032745 466.648743,161.085037 
	C425.426666,176.933060 397.543610,205.682281 383.405396,247.577667 
	C379.910004,257.935394 373.084198,263.649933 364.517365,262.795319 
	C353.205048,261.666840 346.075653,251.189804 349.227631,239.972702 
	C351.343903,232.441360 354.123535,225.122345 357.580994,217.671326 
z"/>
</svg>