<svg version="1.1" id="Layer_1" xmlns="http://www.w3.org/2000/svg" xmlns:xlink="http://www.w3.org/1999/xlink" x="0px" y="0px"
	 width="100%" viewBox="0 0 1024 560" enable-background="new 0 0 1024 560" xml:space="preserve">
<path fill="#FFF" opacity="1.000000" stroke="none" 
	d="
M255.055756,54.467972 
	C250.467224,40.351185 258.241150,29.687899 272.691010,29.685184 
	C288.856445,29.682148 305.021851,29.678837 321.187286,29.688416 
	C332.341309,29.695024 338.065704,34.019825 340.748688,45.002625 
	C344.418396,60.024311 347.894592,75.094383 351.324310,90.173157 
	C353.236053,98.578247 353.117828,98.599152 361.539612,98.599205 
	C491.196320,98.600121 620.853027,98.601883 750.509705,98.608727 
	C754.494690,98.608940 758.491943,98.355927 762.280884,100.136833 
	C770.098999,103.811569 773.860291,112.150040 771.682434,121.613258 
	C764.520752,152.731461 757.292297,183.834274 750.111328,214.948044 
	C743.752563,242.499741 737.285156,270.027374 731.114197,297.621185 
	C722.962341,334.072510 693.183044,358.197083 655.718689,358.215790 
	C568.725403,358.259216 481.731995,358.273102 394.738800,358.172119 
	C386.384338,358.162415 380.027313,360.916534 376.633850,368.750671 
	C372.139008,379.127411 379.733368,390.485016 391.704529,391.538239 
	C393.193970,391.669250 394.702271,391.600403 396.201813,391.600525 
	C503.526886,391.609772 610.851990,391.612793 718.177063,391.629578 
	C729.229675,391.631317 736.175354,397.196564 737.540955,407.034027 
	C738.813721,416.203094 733.195190,424.404358 724.131653,426.331848 
	C721.548035,426.881317 718.851013,427.122986 716.205811,427.124084 
	C608.880737,427.168549 501.555664,427.200958 394.230591,427.155579 
	C363.271729,427.142487 339.414337,404.262848 339.911072,374.499908 
	C340.234039,355.150940 348.906067,339.822632 365.711670,329.890961 
	C370.057404,327.322754 370.236267,324.810638 369.256836,320.713623 
	C361.482147,288.191071 353.823303,255.640762 346.148743,223.094284 
	C334.160400,172.253860 322.121521,121.425072 310.325043,70.540123 
	C309.302429,66.129112 307.387115,65.009865 303.239899,65.106873 
	C293.246155,65.340614 283.243011,65.224403 273.244080,65.170959 
	C265.317017,65.128601 258.989685,62.187428 255.055756,54.467972 
M728.152893,151.830963 
	C729.210815,147.295288 730.213318,142.745712 731.346985,138.229050 
	C732.059509,135.390411 731.036316,134.107483 728.166687,134.121826 
	C725.501160,134.135117 722.835510,134.102081 720.169922,134.102188 
	C603.375549,134.106339 486.581207,134.112213 369.786865,134.116608 
	C361.731720,134.116913 361.651367,134.131424 363.443176,141.718918 
	C377.352386,200.617477 391.332703,259.499268 405.137848,318.422180 
	C406.007233,322.132935 407.903809,322.696533 411.102875,322.694824 
	C492.742279,322.651062 574.381775,322.719513 656.021057,322.627991 
	C675.671936,322.605957 690.823914,310.628418 695.679382,291.613281 
	C698.476074,280.660583 700.933899,269.620422 703.479187,258.604614 
	C711.640076,223.285126 719.770630,187.958649 728.152893,151.830963 
z"/>
<path fill="#FFF" opacity="1.000000" stroke="none" 
	d="
M422.159729,547.352234 
	C398.459564,546.433411 376.753845,525.376526 374.719543,501.790070 
	C372.271088,473.402252 388.196655,451.099365 415.671570,444.438782 
	C443.925201,437.589447 474.302032,458.367401 478.294067,487.272980 
	C482.246613,515.892517 464.887207,540.704041 436.588806,546.841125 
	C431.979065,547.840820 427.288361,547.205627 422.159729,547.352234 
M435.020874,509.729553 
	C436.065338,508.906433 437.200409,508.174835 438.139343,507.245117 
	C443.662140,501.776611 444.724152,493.639832 440.832581,487.071381 
	C437.043488,480.675903 429.016998,477.598511 421.717377,479.742493 
	C414.563110,481.843781 410.042786,488.219727 410.204010,495.982300 
	C410.460083,508.312714 421.682404,514.870728 435.020874,509.729553 
z"/>
<path fill="#FFF" opacity="1.000000" stroke="none" 
	d="
M604.924438,451.823181 
	C639.520691,431.445190 679.187195,449.856445 685.754578,489.004547 
	C690.563904,517.672913 665.691345,546.374451 636.637390,547.589844 
	C607.540710,548.807068 585.471008,527.326477 582.275208,504.060181 
	C579.295410,482.365967 586.683716,464.862549 604.924438,451.823181 
M649.679443,500.051147 
	C651.859070,492.160217 648.540955,484.533081 641.296387,480.781525 
	C634.771851,477.402802 626.244080,479.052460 621.220093,484.665131 
	C616.196411,490.277496 615.991272,499.059723 620.469543,505.426117 
	C627.066895,514.804871 644.454773,514.583252 649.679443,500.051147 
z"/>
</svg>