<svg version="1.1" id="drink" xmlns="http://www.w3.org/2000/svg" xmlns:xlink="http://www.w3.org/1999/xlink" x="0px" y="0px"
	 width="100%" viewBox="0 0 1024 560" enable-background="new 0 0 1024 560" xml:space="preserve">
<path fill="#FFF" opacity="1.000000" stroke="none" 
	d="
M423.820984,371.862183 
	C422.072327,353.350769 420.406647,335.296234 418.619537,317.253723 
	C416.783295,298.715363 414.732086,280.197754 413.005981,261.649567 
	C412.655762,257.886139 411.011658,256.832458 407.602814,256.972565 
	C403.776154,257.129883 399.936371,257.073517 396.105011,256.988525 
	C388.442627,256.818512 385.006836,253.541946 384.895294,246.008804 
	C384.762024,237.010925 384.754913,228.008011 384.892578,219.010345 
	C384.995972,212.254166 388.418396,208.910172 395.128448,208.729324 
	C399.292236,208.617096 403.465149,208.579514 407.626343,208.725647 
	C410.646484,208.831711 412.215118,207.779068 412.659454,204.629547 
	C417.487396,170.405914 435.009338,144.580338 464.550354,126.866920 
	C467.615570,125.028961 467.784363,123.363564 466.204346,120.460869 
	C455.531097,100.852478 444.949280,81.194077 434.411621,61.512398 
	C432.990570,58.858265 430.849548,57.824711 428.054321,57.356823 
	C406.073730,53.677475 384.100525,49.953663 362.132751,46.198425 
	C357.450439,45.398018 352.712799,44.443108 351.712036,38.617901 
	C350.556366,31.891148 355.470917,27.147011 362.652740,28.329802 
	C377.589783,30.789810 392.486694,33.492805 407.405518,36.064308 
	C416.749695,37.674927 426.079315,39.398258 435.462250,40.745094 
	C441.409851,41.598820 445.286865,44.361984 448.151245,49.814758 
	C459.151855,70.755989 470.703339,91.408173 481.670959,112.366165 
	C483.988220,116.794235 486.128448,117.361366 490.876099,116.434975 
	C519.116150,110.924637 547.737183,109.241333 575.364685,118.074318 
	C615.665649,130.959198 639.488647,159.441513 647.410156,201.045334 
	C648.864075,208.681198 648.673645,208.714615 656.722107,208.716629 
	C659.888672,208.717422 663.060913,208.615738 666.220520,208.768890 
	C672.349792,209.066010 675.296631,212.125580 675.331238,218.222977 
	C675.386169,227.889175 675.380310,237.556061 675.335144,247.222351 
	C675.306458,253.349121 672.501343,256.466553 666.361755,256.855591 
	C662.044800,257.129120 657.686829,257.164368 653.370239,256.912109 
	C649.505066,256.686218 647.949585,258.399750 647.617188,262.008392 
	C646.564514,273.435699 645.449524,284.857483 644.308777,296.276398 
	C642.440674,314.977478 640.491577,333.670532 638.655212,352.374664 
	C637.143494,367.771820 635.801941,383.185699 634.284302,398.582245 
	C632.097961,420.763916 629.795471,442.934082 627.589722,465.113861 
	C625.795471,483.154999 624.070618,501.203064 622.315002,519.248047 
	C621.590027,526.699463 620.964294,534.162292 620.108826,541.598694 
	C619.440247,547.411194 616.354492,550.171387 610.435120,550.176331 
	C557.102661,550.221130 503.770203,550.225037 450.437775,550.188416 
	C444.426025,550.184265 441.402740,547.492981 440.780090,541.661377 
	C439.066956,525.616333 437.422211,509.563538 435.844879,493.504517 
	C434.007385,474.796814 432.301056,456.076263 430.480591,437.366821 
	C428.579590,417.829803 426.616058,398.298859 424.663330,378.766907 
	C424.448090,376.613831 424.124176,374.471619 423.820984,371.862183 
M432.230042,275.569855 
	C433.903900,292.439056 435.614868,309.304718 437.242340,326.178375 
	C439.380981,348.351685 441.380188,370.538574 443.574646,392.706268 
	C446.063812,417.851105 448.728516,442.978546 451.268005,468.118469 
	C453.305969,488.293732 455.349335,508.469208 457.190338,528.662781 
	C457.493591,531.989075 458.850861,532.840881 461.887360,532.837219 
	C507.535614,532.781494 553.184021,532.768799 598.832214,532.842651 
	C602.541077,532.848633 603.608398,531.346130 603.856873,527.816772 
	C604.405457,520.027771 605.483093,512.277283 606.268311,504.503357 
	C608.089111,486.477478 609.892029,468.449677 611.650024,450.417572 
	C613.166504,434.862549 614.551758,419.294617 616.100891,403.742889 
	C618.572388,378.931061 621.172607,354.131989 623.641479,329.319916 
	C625.797791,307.649658 627.780884,285.962036 629.982544,264.296509 
	C630.730896,256.932404 630.928589,256.950714 623.276123,256.951935 
	C562.300598,256.961578 501.325043,256.970947 440.349487,256.986267 
	C438.184235,256.986786 436.019012,257.072906 433.853729,257.075012 
	C431.346802,257.077454 430.204468,258.106689 430.564056,260.774811 
	C431.185822,265.387878 431.630798,270.024750 432.230042,275.569855 
M448.590637,163.071884 
	C439.384796,174.430588 433.463684,187.265884 430.974304,201.708191 
	C429.785889,208.602875 429.749542,208.705505 436.815277,208.705475 
	C488.284943,208.705322 539.754639,208.702972 591.224304,208.701157 
	C602.884094,208.700760 614.544739,208.623703 626.203247,208.745911 
	C629.639404,208.781937 631.010437,207.820221 630.500854,204.107925 
	C625.764526,169.606232 596.392273,138.406967 562.069153,132.459076 
	C542.440796,129.057648 522.584717,129.829727 502.816833,131.758469 
	C499.988953,132.034378 496.763519,131.875000 494.382996,134.509567 
	C494.919647,137.349976 496.586304,139.672668 497.906830,142.132843 
	C504.127441,153.722351 510.461823,165.251678 516.585693,176.891861 
	C519.624268,182.667664 518.220825,187.546677 513.208618,190.081482 
	C508.732330,192.345245 504.384094,190.620972 501.335052,185.161041 
	C497.438354,178.183273 493.680450,171.128021 489.851990,164.112061 
	C485.566620,156.258759 481.269165,148.412048 476.776764,140.196396 
	C465.729797,146.022675 456.502472,153.153793 448.590637,163.071884 
M434.500061,226.335022 
	C425.506622,226.333069 416.512970,226.301926 407.519867,226.354370 
	C405.767395,226.364594 403.750702,225.937714 402.671692,228.038467 
	C399.691711,233.840256 403.180328,239.571762 409.691681,239.572021 
	C488.134552,239.575317 566.577454,239.579147 645.020325,239.582794 
	C648.351196,239.582947 651.682007,239.586456 655.012878,239.581375 
	C656.392334,239.579269 657.659302,239.406326 658.298462,237.888397 
	C660.742493,232.083847 657.040588,226.322403 650.843262,226.322739 
	C579.062195,226.326614 507.281158,226.330917 434.500061,226.335022 
z"/>
</svg>