<svg version="1.1" id="Layer_1" xmlns="http://www.w3.org/2000/svg" xmlns:xlink="http://www.w3.org/1999/xlink" x="0px" y="0px"
	 width="100%" viewBox="0 0 1366 768" enable-background="new 0 0 1366 768" xml:space="preserve">
<path fill="#fff" opacity="1.000000" stroke="none" 
	d="
M508.941956,740.028137 
	C476.198639,752.241150 443.738892,729.547241 445.021851,695.060059 
	C446.861206,645.617249 449.414673,596.201111 451.647217,546.772888 
	C453.443787,506.996521 455.206482,467.218597 457.004028,427.442261 
	C457.951691,406.472443 458.996948,385.506683 459.811554,364.531830 
	C459.879425,362.784637 459.008514,359.957184 457.750854,359.357513 
	C435.755127,348.869507 419.963074,331.924133 407.480927,311.532471 
	C391.404816,285.269531 382.532318,256.479889 379.298157,226.072739 
	C375.547882,190.812698 377.561371,155.910919 388.980988,121.980202 
	C397.906006,95.461594 410.782562,71.324219 431.486084,51.959152 
	C444.391907,39.887703 459.263367,31.206509 476.744446,28.090109 
	C502.350037,23.525322 525.229858,30.193298 545.179382,46.735722 
	C573.254272,70.015900 588.667603,100.965210 597.276611,135.533264 
	C609.530212,184.735947 608.035217,233.502090 590.012634,281.271637 
	C581.211121,304.600616 568.719971,325.744690 549.837463,342.343384 
	C541.798706,349.409760 532.414856,354.945862 522.815186,361.764893 
	C523.624817,380.332031 524.468445,400.296417 525.371704,420.258087 
	C526.892944,453.875885 528.455505,487.491821 529.994263,521.108826 
	C532.211121,569.537598 534.422119,617.966736 536.635925,666.395691 
	C537.054382,675.549194 537.553894,684.699768 537.877930,693.856567 
	C538.624634,714.955750 528.662415,730.965149 508.941956,740.028137 
z"/>
<path fill="#fff" opacity="1.000000" stroke="none" 
	d="
M952.876099,188.867859 
	C956.985168,184.944138 957.468140,180.247391 957.463074,175.283005 
	C957.419739,132.622391 957.436279,89.961716 957.445801,47.301060 
	C957.446289,45.303604 957.425659,43.293602 957.626343,41.310856 
	C958.596191,31.731714 965.510376,26.429684 976.188232,26.998413 
	C983.681641,27.397535 989.977417,34.378544 989.981567,42.637402 
	C990.016663,112.794174 990.989014,182.970490 989.604004,253.099930 
	C988.855957,290.981689 969.839966,320.555450 937.933411,341.083740 
	C929.651367,346.412292 920.141724,349.895691 911.018555,353.813446 
	C908.465637,354.909760 907.447693,355.714752 907.584778,358.652466 
	C911.374329,439.872284 915.057007,521.097107 918.751160,602.321350 
	C920.151672,633.113464 921.705566,663.899902 922.873413,694.700867 
	C923.761841,718.131714 908.634338,737.510498 886.315247,742.280029 
	C855.823975,748.795898 828.685486,726.218567 829.862610,694.986877 
	C831.136475,661.188599 832.745300,627.402649 834.273926,593.614319 
	C835.674622,562.655945 837.191223,531.702881 838.606384,500.745209 
	C840.759460,453.642212 842.833374,406.535461 845.071411,359.436523 
	C845.234070,356.012390 844.276611,354.717316 840.961792,353.546143 
	C799.743408,338.983185 774.956238,309.653137 765.187500,267.495178 
	C763.179138,258.828033 762.565308,249.672806 762.535706,240.738480 
	C762.320801,175.748352 762.404907,110.757156 762.468262,45.766373 
	C762.471130,42.815269 762.687561,39.689419 763.659302,36.947926 
	C766.291138,29.522636 773.433655,25.907099 782.271423,27.021694 
	C788.379272,27.792000 793.835754,33.784443 794.752502,40.877319 
	C794.986084,42.684448 794.916443,44.536076 794.916809,46.367268 
	C794.924927,89.694504 794.915222,133.021729 794.931213,176.348969 
	C794.934204,184.431152 797.911377,189.380493 804.147034,191.912796 
	C812.992371,195.504883 823.119019,189.348648 823.962830,179.822708 
	C824.124023,178.002136 824.058044,176.159424 824.058228,174.326920 
	C824.062866,130.999695 824.105957,87.672371 824.019226,44.345310 
	C824.004822,37.154026 826.701355,31.618153 833.017639,28.317226 
	C847.131714,20.941139 861.741272,29.792524 861.756348,45.648537 
	C861.797485,88.809090 861.749939,131.969727 861.816345,175.130219 
	C861.820862,178.079834 861.953491,181.217606 862.936646,183.939117 
	C865.148254,190.061081 871.822876,193.740982 878.100525,192.899948 
	C884.677307,192.018875 890.040955,186.653839 890.825256,180.032272 
	C891.039795,178.221268 890.961426,176.371689 890.961670,174.539810 
	C890.968079,131.379211 890.959900,88.218628 890.971313,45.058037 
	C890.974548,32.822674 896.774780,26.998043 908.875916,26.997894 
	C922.964844,26.997723 928.136963,32.128460 928.138428,46.138180 
	C928.142761,89.132126 928.105408,132.126175 928.210205,175.119858 
	C928.218079,178.367645 928.544617,181.926926 929.883362,184.800980 
	C933.996399,193.631271 943.931458,195.340698 952.876099,188.867859 
z"/>
</svg>