<svg version="1.1" id="Layer_1" xmlns="http://www.w3.org/2000/svg" xmlns:xlink="http://www.w3.org/1999/xlink" x="0px" y="0px"
	 width="100%" viewBox="600 0 768 768" enable-background="new 0 0 1366 768" xml:space="preserve">
<path fill="#fff" opacity="1.000000" stroke="none" 
	d="
M712.999695,738.366699 
	C599.503967,738.366699 486.508179,738.320740 373.512573,738.439148 
	C362.457611,738.450745 352.342194,736.475525 344.007385,728.777527 
	C335.854736,721.247925 330.968567,712.220276 330.970734,700.763367 
	C331.010742,490.437988 330.999634,280.112579 331.000549,69.787193 
	C331.000641,49.388554 348.415222,32.007820 368.949036,32.006733 
	C579.107727,31.995634 789.266479,31.994907 999.425171,32.007992 
	C1019.612305,32.009251 1036.628052,48.774876 1037.070679,68.978188 
	C1037.096191,70.144440 1037.121948,71.311012 1037.121948,72.477440 
	C1037.124268,280.969543 1037.082275,489.461700 1037.208618,697.953735 
	C1037.218018,713.547363 1030.928345,725.157288 1018.027527,733.387085 
	C1011.179871,737.755432 1003.407715,738.397034 995.487976,738.389343 
	C947.489807,738.342773 899.491577,738.366516 851.493408,738.366638 
	C805.495483,738.366760 759.497620,738.366699 712.999695,738.366699 
M630.441040,528.058960 
	C595.918640,493.611694 561.396240,459.164398 526.809143,424.652496 
	C488.176025,455.557159 449.794189,486.207367 411.560059,517.040649 
	C410.019623,518.282959 409.190247,521.255737 409.183563,523.425842 
	C409.048309,567.257751 409.082275,611.090271 409.082275,654.922607 
	C409.082275,656.541199 409.082275,658.159851 409.082275,659.895508 
	C592.613403,659.895508 775.665710,659.895508 958.775513,659.895508 
	C958.878784,659.163574 959.004089,658.689758 959.004150,658.215942 
	C959.013062,586.550842 959.029236,514.885742 958.912048,443.220825 
	C958.909302,441.559937 957.831421,439.364624 956.530945,438.320160 
	C918.240173,407.567108 879.857361,376.928589 841.293945,346.115814 
	C808.514709,378.851532 775.741150,411.573608 742.976685,444.304810 
	C710.262207,476.986023 677.556824,509.676422 644.794006,542.416199 
	C639.890503,537.511658 635.415466,533.035706 630.441040,528.058960 
M566.323242,160.089767 
	C547.637817,149.470840 527.783813,147.030960 507.070892,152.183990 
	C469.420471,161.550812 444.914062,197.762131 449.012024,237.583557 
	C452.785370,274.250610 485.046936,304.665924 522.280457,306.658936 
	C558.839478,308.615845 591.254700,285.875031 602.148376,250.627655 
	C612.687439,216.527634 598.274292,179.635056 566.323242,160.089767 
z"/>
</svg>