<?xml version="1.0" encoding="UTF-8"?>
<svg id="Layer_2" data-name="Layer 2" xmlns="http://www.w3.org/2000/svg" viewBox="0 0 578.18 465.83">
  <defs>
    <style>
      .cls-1 {
        fill: #fff;
      }

      .cls-2 {
        fill: #333;
      }
    </style>
  </defs>
  <g id="Blanco">
    <g>
      <path class="cls-1" d="M566.85,334.03c10.6-21.03,13.79-44.93,9.47-71.03-4.33-26.09-16.04-53.22-34.81-80.61-35.76-52.17-93.56-99.81-162.75-134.12C309.54,13.94,237.03-3.04,174.57,.45,110.62,4.03,63.95,28.71,43.16,69.96l-7.72,15.3s-.03,.06-.04,.08h0s-23.88,45.22-23.88,45.22l-.1,.21c-.32,.62-.63,1.26-.96,1.93C-9.82,175.09-.42,228.43,36.94,282.92c35.92,52.4,93.88,100.19,163.18,134.57,63.38,31.43,129.59,48.34,188.42,48.33,5.53,0,10.99-.14,16.38-.44,40.2-2.25,73.6-12.78,98.06-30.47,16.93-16.19,30.89-34.17,40.6-54.73l8.45-16.76c.51-.9,1.05-1.78,1.56-2.58,2.23-3.36,4.26-6.85,6.06-10.41l8.04-15.94s0,0,0-.02l-.86-.44v-.02Zm-70.09-144.02c6.03,7.21,11.6,14.52,16.62,21.85,2.22,3.23,4.36,6.5,6.37,9.76l-2.49,4.94c-7.05-10.13-15.04-20.21-23.78-30.04l3.29-6.51Zm-64.05-59.91c12.82,9.55,24.88,19.62,35.93,30l-3.74,7.43c-11.27-10.21-23.41-20.07-36.23-29.44l4.03-8Zm-78.47-47.04c15.03,7.21,29.72,15.21,43.81,23.83l-4.15,8.25c-14.15-8.59-28.84-16.55-43.86-23.77l4.19-8.3Zm-83.08-30.91c15.27,4,30.7,8.96,46.01,14.78l-4.14,8.2c-15.22-5.88-30.57-10.95-45.83-15.14l3.96-7.84Zm-78.83-12.01c13.68,.45,27.91,1.87,42.44,4.23l-3.69,7.32c-14.23-2.6-28.26-4.37-41.9-5.29l3.15-6.26Zm-71.1,8.53c.19-.33,.41-.59,.57-.75,8.78-2.61,18.24-4.61,28.26-5.96l-2.14,4.23c-9.4,.65-18.47,1.78-27.15,3.36l.45-.88ZM44.24,216.08c-2.32-5.39-4.3-10.72-5.94-15.96,.06-.21,.14-.49,.27-.81,2.13,4.69,4.47,9.39,7.02,14.1l-1.34,2.68Zm38.5,60.65c-6.45-7.63-12.38-15.4-17.71-23.19-.26-.36-.5-.73-.75-1.09l2.75-5.45c5.84,7.83,12.21,15.59,19.02,23.18l-3.3,6.55Zm55.96,52.76c-10.07-7.86-19.67-16.06-28.59-24.47l3.75-7.42c9.08,8.25,18.74,16.28,28.84,23.97l-4,7.92Zm68.06,44.09c-12.61-6.69-24.87-13.9-36.58-21.49l4.13-8.19c11.76,7.54,24.04,14.7,36.64,21.38l-4.19,8.3Zm71.23,30.88c-13.02-4.42-26.08-9.52-38.98-15.22l4.18-8.28c12.87,5.71,25.9,10.87,38.9,15.4l-4.09,8.1Zm72.92,17.95c-11.74-1.69-23.75-4.01-35.84-6.95l3.91-7.75c11.95,3.06,23.84,5.58,35.54,7.52l-3.62,7.19Zm68.73,2.21c-2.71,.24-5.46,.44-8.22,.59-6.62,.38-13.44,.49-20.38,.37l3.09-6.11c9.5,.51,18.87,.62,27.95,.29l-2.44,4.86Zm41.65-7.91l.61-1.2c2.47-.48,4.91-1,7.32-1.57-2.58,.98-5.22,1.91-7.92,2.77Zm61.23-65.33c-20.85,16.38-51.17,26.08-88.07,28.15-58.55,3.28-126.9-12.84-192.49-45.36-65.6-32.54-120.23-77.45-153.82-126.45-22.39-32.67-33.34-64.49-31.83-92.37,20.89-16.94,51.44-26.97,88.76-29.05,121.01-6.76,275.87,70.08,345.25,171.29,22.69,33.09,33.75,65.4,32.2,93.79Zm14.59-91.26l.77-1.51c1.23,3.45,2.32,6.87,3.27,10.27-1.26-2.92-2.6-5.84-4.03-8.77Z"/>
      <path class="cls-1" d="M439.11,233.16l-4.09,6.56c-.54,.87-13.63,21.67-37.78,42.49-32.37,27.92-69.46,42.68-107.26,42.68s-74.7-14.7-108.35-42.51c-25.07-20.72-39.27-41.38-39.87-42.25l-4.7-6.9,4.68-6.92c2.36-3.48,58.73-85.37,145.37-85.37,38.47,0,76.26,14.85,109.27,42.91,24.66,20.96,38.04,41.9,38.6,42.78l4.13,6.53Z"/>
    </g>
    <g>
      <g id="Ojito">
        <path class="cls-2" d="M288.26,183.74c-27,0-48.89,21.89-48.89,48.89,0,27,21.89,48.89,48.89,48.89,27,0,48.89-21.89,48.89-48.89s-21.89-48.89-48.89-48.89Zm0,58.67c-11.75,0-21.28-9.53-21.28-21.28,0-2.08,.3-4.09,.86-6,1.87,4.85,6.57,8.3,12.08,8.3,7.15,0,12.94-5.79,12.94-12.94,0-4.4-2.19-8.28-5.55-10.62,.31-.01,.63-.02,.94-.02,11.75,0,21.28,9.53,21.28,21.28,0,11.75-9.53,21.28-21.28,21.28Z"/>
        <path class="cls-2" d="M287.11,172.1c16.96,0,33.75,3.57,49.91,10.62,13.24,5.78,26.14,13.9,38.34,24.14,11.49,9.65,20.23,19.42,25.87,26.41-5.51,6.93-14.02,16.55-25.17,26.06-11.91,10.14-24.5,18.18-37.42,23.9-15.74,6.96-32.11,10.49-48.65,10.49s-32.77-3.55-48.85-10.56c-13.25-5.77-26.32-13.9-38.85-24.15-11.52-9.42-20.5-18.95-26.45-25.9,5.75-6.82,14.36-16.12,25.44-25.49,12.41-10.49,25.3-18.81,38.3-24.72,15.75-7.17,31.74-10.8,47.53-10.8h0Zm0-18.85c-81.1,0-135.17,79.95-135.17,79.95,0,0,54.07,79.38,138.05,79.38s134.6-79.38,134.6-79.38c0,0-50.62-79.95-137.47-79.95h0Z"/>
      </g>
      <g>
        <path class="cls-2" d="M549.89,340.33l-8.68,17.21c.62-1.09,1.32-2.27,2.07-3.43,1.96-2.96,3.76-6.03,5.38-9.21l8.05-15.97c-2,3.97-4.28,7.77-6.82,11.39ZM48.26,87.36c.94-1.68,1.94-3.33,2.99-4.94,.64-1.56,1.33-3.1,2.06-4.64l-5.06,9.58Z"/>
        <path class="cls-2" d="M531.35,189.35C459.82,84.99,300.07,5.77,175.26,12.74c-61.46,3.44-103.16,27.13-121.12,62.77l-7.75,15.38c.58-1.14,1.17-2.27,1.79-3.38l-1.97,3.74-.03,.06-23.77,45.01c-.29,.57-.57,1.14-.84,1.71-18.3,38.25-9.24,87.24,25.52,137.94,34.76,50.7,91.05,97.05,158.51,130.51,67.45,33.45,138,50.01,198.64,46.63,59.74-3.34,102.82-25.64,121.59-62.87l7.63-15.13c-1.63,3.22-3.44,6.33-5.44,9.33-.15,.21-.34,.48-.51,.66-.02-.1-.03-.17,0-.34h0c.08-.33,.36-.98,1.21-2.71l10.13-20.1c.37-.73,1.23-2.4,2.37-4.38l8.68-17.21,5.97-11.84c18.52-36.74,11.81-86.16-24.51-139.14Zm9.54,45c7.15,14.49,12.01,28.56,14.68,42,.4,2.54-.3,6.09-1.81,9.26l-10.13,20.09c-2.01,3.76-2.94,2.05-3.11,1.68-.09-.21-.15-.52-.22-.74-2.66-13.44-7.52-27.51-14.68-42-1.23-2.8-1.13-6.57,.27-9.62l10.13-20.09c1.91-3.46,3.82-2.47,4.87-.58Zm-42.95-61.72c9.42,10.43,18,21.21,25.58,32.27,2.67,3.89,5.18,7.77,7.53,11.62,1.53,2.77,1.59,6.57,.16,9.69l-10.13,20.09c-1.88,3.38-3.97,2.48-5.3,.51-2.35-3.85-4.86-7.73-7.53-11.62-7.58-11.06-16.16-21.84-25.58-32.27-2.27-2.74-2.82-6.37-1.44-9.46l10.13-20.1c1.61-2.84,4.2-3.13,6.58-.73Zm-82.45-35.75l10.13-20.09c1.65-2.86,4.68-3.43,7.73-1.45,16.47,11.81,31.94,24.53,46.02,37.98,2.45,2.56,3.14,6.22,1.77,9.31l-10.13,20.09c-1.62,2.85-4.27,3.19-6.91,.89-14.09-13.45-29.55-26.18-46.03-37.98-2.94-2.32-3.93-5.67-2.59-8.74Zm-79.59-44.82l10.13-20.09c1.67-2.89,4.96-3.84,8.4-2.43,18.69,8.71,36.9,18.59,54.26,29.48,3.05,2.11,4.15,5.45,2.81,8.52l-10.13,20.1c-1.66,2.87-4.7,3.51-7.95,1.68-17.37-10.89-35.58-20.77-54.26-29.48-3.34-1.74-4.59-4.72-3.26-7.77Zm-84.02-29.05l10.13-20.1c1.67-2.92,5.04-4.35,8.58-3.63,19.3,4.87,38.65,11.19,57.7,18.76,3.35,1.51,4.66,4.46,3.34,7.49l-10.13,20.1c-1.67,2.9-4.93,3.94-8.48,2.7-19.05-7.58-38.4-13.89-57.7-18.76-3.44-1.04-4.76-3.55-3.43-6.57Zm-79.77-10.13l10.13-20.1c1.67-2.97,4.92-4.94,8.29-5.01,18.43,.46,37.42,2.62,56.62,6.29,3.39,.82,4.73,3.29,3.41,6.29l-10.13,20.09c-1.65,2.89-5.01,4.42-8.55,3.91-19.2-3.67-38.19-5.83-56.62-6.29-3.27-.23-4.47-2.22-3.14-5.19Zm-61.78-9.97c1.66-3.08,4.33-5.57,6.96-6.5,14.3-4.35,30.37-7.2,48.13-8.34,3.15-.05,4.33,1.83,2.99,4.8l-10.13,20.09c-1.63,2.92-4.82,5.05-8.14,5.4-17.75,1.14-33.83,3.99-48.12,8.34-2.45,.63-3.17-.82-1.82-3.7l10.13-20.09Zm-49.77,29.92c1.29-2.49,3.34-5.82,5.26-7.73,8.86-8.33,19.63-15.47,32.22-21.2,2.78-1.11,2.3,1.38,1.65,2.85-.07,.15-.17,.36-.24,.51l-10.13,20.09c-1.58,2.95-4.15,5.63-6.54,6.84-12.6,5.73-23.37,12.86-32.23,21.2q-.43,.38-.86,.61c-.08-.03-.19-.08-.28-.12-.02-.57,.12-1.14,1.02-2.97l10.13-20.09Zm-7.23,4.94c-.73,1.53-1.42,3.07-2.06,4.64-1.05,1.62-2.05,3.27-2.99,4.94l5.06-9.58Zm-8.88,31.52c22.29-20.07,56.08-32.84,99.93-35.29,124.81-6.97,284.55,72.26,356.09,176.61,26.55,38.72,37.27,75.55,33.89,106.91-22.88,20-56.87,31.91-99.23,34.28-60.64,3.39-131.18-13.17-198.64-46.62-67.46-33.46-123.75-79.81-158.51-130.51-25.76-37.58-36.94-73.65-33.54-105.38Zm-21.91,78.63c-2.29-11.77-2.9-23.16-1.81-34.01,.32-2.44,1.74-5.97,2.96-8.45l10.13-20.1c.94-1.82,1.32-2.31,1.83-2.71,.1,.06,.24,.14,.34,.2,.02,.23,.03,.54,.01,.77-1.09,10.85-.47,22.24,1.81,34.01,.35,2.32-.36,5.76-1.8,8.77l-10.13,20.09c-.72,1.35-2.48,4.19-3.34,1.43Zm24.29,50.37c-1.54,2.81-3.46,3.29-4.78,1.18-6.95-12.58-12.25-24.97-15.89-37.03-.58-2.32,0-5.7,1.49-8.84l10.13-20.1c1.07-2.01,2.58-3.87,3.65-1.35,3.64,12.06,8.95,24.45,15.89,37.03,1.19,2.44,1.05,5.98-.36,9.02l-10.13,20.09Zm35.28,56.36c-10.13-11.08-19.24-22.49-27.22-34.14-.75-1.1-1.5-2.19-2.22-3.29-1.43-2.41-1.43-5.96,0-9.05l10.13-20.09c1.88-3.42,3.89-2.83,5.15-1.15,.73,1.1,1.47,2.19,2.22,3.29,7.98,11.64,17.1,23.06,27.23,34.14,1.93,2.34,2.29,5.82,.91,8.86l-10.13,20.09c-1.6,2.86-3.98,3.38-6.06,1.34Zm63.53,48.42c-1.63,2.87-4.39,3.58-7.05,1.8-14.29-10.65-27.61-21.91-39.8-33.63-2.1-2.25-2.57-5.69-1.18-8.76l10.13-20.09c1.61-2.87,4.04-3.42,6.33-1.44,12.19,11.72,25.51,22.97,39.8,33.63,2.5,2.07,3.25,5.37,1.9,8.4l-10.13,20.09Zm61.28,44.48c-16.77-8.62-32.81-18.03-47.96-28.11-2.64-1.95-3.47-5.2-2.11-8.25l10.13-20.1c1.64-2.88,4.42-3.63,7.26-1.94,15.15,10.08,31.19,19.49,47.96,28.11,2.94,1.7,3.99,4.74,2.67,7.75l-10.13,20.09c-1.65,2.89-4.71,3.85-7.81,2.45Zm90,6.7l-10.13,20.09c-1.65,2.91-4.75,4.25-7.89,3.39-17.11-5.61-34.3-12.34-51.34-20.15-2.99-1.56-4.07-4.53-2.73-7.56l10.13-20.09c1.63-2.86,4.72-3.9,7.87-2.63,17.04,7.81,34.22,14.54,51.34,20.15,3.04,1.17,4.09,3.78,2.75,6.81Zm73.74,16.3l-10.13,20.09c-1.64,2.95-4.66,4.7-7.68,4.45-16.47-2.19-33.32-5.59-50.32-10.14-3-.98-4.07-3.55-2.73-6.55l10.13-20.09c1.63-2.89,4.72-4.32,7.86-3.64,17.01,4.55,33.85,7.95,50.32,10.14,2.92,.55,3.9,2.75,2.54,5.75Zm52.39,26.1c-3.59,.35-7.24,.63-10.96,.84-11.52,.64-23.4,.57-35.55-.21-2.83-.34-3.79-2.48-2.45-5.46l10.13-20.1c1.62-2.91,4.6-4.78,7.58-4.74,12.15,.77,24.03,.85,35.55,.21,3.72-.21,7.37-.49,10.96-.84,2.02-.09,3.6,1.07,1.97,4.61l-10.13,20.09c-1.63,2.99-4.42,5.18-7.11,5.59Zm56.89-13.81c-11.17,4.87-23.64,8.62-37.28,11.18-2.41,.31-3.08-1.39-1.71-4.34l10.13-20.09c1.6-2.94,4.29-5.24,6.85-5.86,13.65-2.56,26.11-6.31,37.28-11.18,2.2-.83,1.97,1.12,1.11,3.04-.07,.15-.17,.36-.25,.51l-10.13,20.09c-1.63,3.08-3.93,5.63-6,6.65Zm43.81-34.57c-1.28,2.48-3.2,5.78-4.78,7.58-7.26,7.88-16,14.74-26.09,20.51-2.17,1.1-1.41-1.39-1.23-1.9,.18-.52,.44-1.05,.62-1.44l10.13-20.09c1.56-2.95,3.81-5.65,5.75-6.86,9.46-5.4,17.72-11.77,24.7-19.04-.43,2.07-.92,4.11-1.48,6.12l-7.62,15.11Zm29.62-57.42c-.97,2.93-3.11,7.28-3.74,8.55l-2.05,4.07c-2.16,2.82-4.49,5.53-6.98,8.12,1.73-8.42,2.38-17.29,1.91-26.53-.05-2.53,.86-6.11,2.3-9.11l10.13-20.09c.95-1.79,1.41-2.21,2.1-2.47q.59,.3,.74,1.38c.65,12.82-.85,24.92-4.4,36.09Z"/>
        <path class="cls-2" d="M538.84,361.93l-10.13,20.1c-.85,1.73-1.13,2.38-1.21,2.7l13.71-27.19c-1.14,1.98-2,3.66-2.37,4.38ZM48.26,87.36c.94-1.68,1.94-3.33,2.99-4.94,.64-1.56,1.33-3.1,2.06-4.64l-5.06,9.58Z"/>
      </g>
    </g>
  </g>
</svg>