<?xml version="1.0" encoding="UTF-8"?>
<svg id="Layer_2" data-name="Layer 2" xmlns="http://www.w3.org/2000/svg" viewBox="0 0 584.62 466">
  <defs>
    <style>
      .cls-1 {
        fill: #333;
      }
    </style>
  </defs>
  <g id="Negro">
    <g>
      <g id="Ojito">
        <path class="cls-1" d="M291.43,181.06c-28.52,0-51.64,23.12-51.64,51.64,0,28.52,23.12,51.64,51.64,51.64,28.52,0,51.64-23.12,51.64-51.64,0-28.52-23.12-51.64-51.64-51.64Zm0,61.97c-12.41,0-22.48-10.06-22.48-22.48,0-2.2,.32-4.32,.91-6.33,1.97,5.12,6.94,8.76,12.76,8.76,7.55,0,13.67-6.12,13.67-13.67,0-4.64-2.32-8.74-5.86-11.21,.33-.01,.66-.03,1-.03,12.41,0,22.48,10.06,22.48,22.48,0,12.41-10.06,22.48-22.48,22.48Z"/>
        <path class="cls-1" d="M290.22,168.77c17.91,0,35.65,3.77,52.71,11.22,13.98,6.1,27.61,14.68,40.49,25.5,12.13,10.19,21.37,20.51,27.33,27.9-5.82,7.32-14.8,17.48-26.59,27.52-12.58,10.71-25.87,19.2-39.52,25.24-16.63,7.35-33.92,11.08-51.39,11.08s-34.61-3.75-51.59-11.16c-13.99-6.1-27.8-14.68-41.04-25.5-12.16-9.95-21.65-20.01-27.93-27.36,6.07-7.2,15.16-17.03,26.87-26.92,13.11-11.08,26.72-19.87,40.46-26.11,16.64-7.57,33.53-11.41,50.2-11.41h0Zm0-19.91c-85.66,0-142.77,84.44-142.77,84.44,0,0,57.11,83.84,145.8,83.84s142.16-83.84,142.16-83.84c0,0-53.46-84.44-145.2-84.44h0Z"/>
      </g>
      <g>
        <path class="cls-1" d="M567.76,346.45l-9.16,18.18c.65-1.15,1.4-2.39,2.19-3.62,2.07-3.12,3.97-6.37,5.68-9.73l8.5-16.86c-2.11,4.19-4.52,8.2-7.2,12.03ZM37.96,79.26c1-1.77,2.05-3.51,3.16-5.22,.68-1.65,1.41-3.28,2.18-4.9l-5.34,10.12Z"/>
        <path class="cls-1" d="M548.18,186.99C472.63,76.77,303.91-6.91,172.09,.45,107.18,4.08,63.14,29.11,44.17,66.74l-8.19,16.25c.61-1.2,1.24-2.39,1.89-3.57l-2.08,3.95-.03,.06-25.11,47.54c-.3,.6-.6,1.2-.89,1.8C-9.57,173.16,0,224.91,36.71,278.46c36.71,53.55,96.16,102.5,167.41,137.84,71.24,35.33,145.75,52.82,209.79,49.25,63.1-3.53,108.6-27.08,128.42-66.41l8.06-15.98c-1.73,3.41-3.64,6.69-5.74,9.85-.15,.22-.36,.51-.54,.7-.02-.1-.04-.18,0-.36h0c.08-.35,.38-1.04,1.28-2.86l10.7-21.23c.39-.77,1.3-2.54,2.5-4.63l9.16-18.18,6.31-12.51c19.56-38.8,12.47-91-25.88-146.96Zm10.07,47.53c7.56,15.31,12.69,30.16,15.5,44.36,.42,2.69-.32,6.43-1.91,9.78l-10.7,21.22c-2.12,3.97-3.11,2.17-3.29,1.77-.1-.22-.16-.55-.23-.78-2.81-14.2-7.94-29.05-15.5-44.36-1.3-2.96-1.19-6.94,.29-10.16l10.7-21.22c2.02-3.65,4.03-2.61,5.15-.61Zm-45.37-65.19c9.95,11.01,19.01,22.4,27.02,34.08,2.82,4.11,5.47,8.2,7.95,12.27,1.61,2.93,1.68,6.94,.17,10.24l-10.7,21.22c-1.99,3.57-4.2,2.62-5.6,.54-2.49-4.07-5.14-8.16-7.95-12.27-8.01-11.69-17.07-23.07-27.01-34.08-2.39-2.89-2.98-6.72-1.52-9.99l10.7-21.23c1.71-3,4.44-3.31,6.95-.78Zm-87.08-37.75l10.7-21.22c1.74-3.02,4.95-3.62,8.16-1.54,17.4,12.47,33.73,25.91,48.61,40.12,2.58,2.71,3.32,6.57,1.87,9.83l-10.7,21.22c-1.72,3.01-4.51,3.37-7.3,.94-14.88-14.21-31.21-27.65-48.61-40.12-3.1-2.45-4.15-5.98-2.73-9.24Zm-84.06-47.34l10.7-21.22c1.76-3.05,5.24-4.06,8.87-2.56,19.74,9.19,38.97,19.64,57.31,31.13,3.22,2.23,4.38,5.76,2.97,9l-10.7,21.23c-1.75,3.03-4.97,3.71-8.39,1.77-18.35-11.5-37.58-21.94-57.31-31.13-3.53-1.84-4.84-4.98-3.44-8.21Zm-88.74-30.68l10.7-21.23c1.77-3.09,5.32-4.59,9.06-3.83,20.38,5.15,40.82,11.81,60.94,19.82,3.54,1.6,4.93,4.71,3.53,7.91l-10.7,21.23c-1.77,3.06-5.2,4.16-8.96,2.85-20.12-8.01-40.56-14.67-60.94-19.82-3.64-1.1-5.02-3.75-3.62-6.94Zm-84.25-10.7l10.7-21.23c1.76-3.14,5.19-5.22,8.75-5.29,19.47,.49,39.53,2.77,59.8,6.65,3.58,.86,4.99,3.47,3.6,6.65l-10.7,21.22c-1.75,3.05-5.29,4.67-9.03,4.13-20.27-3.88-40.34-6.16-59.8-6.65-3.45-.25-4.72-2.34-3.32-5.48Zm-65.25-10.53c1.76-3.25,4.57-5.88,7.35-6.87,15.1-4.59,32.08-7.6,50.83-8.81,3.33-.06,4.57,1.93,3.16,5.07l-10.7,21.22c-1.73,3.09-5.1,5.33-8.59,5.7-18.75,1.2-35.73,4.21-50.82,8.81-2.59,.66-3.34-.87-1.92-3.91l10.7-21.22Zm-52.57,31.6c1.36-2.63,3.53-6.15,5.56-8.16,9.35-8.8,20.73-16.34,34.03-22.39,2.94-1.17,2.43,1.46,1.74,3.01-.07,.16-.18,.38-.26,.54l-10.7,21.22c-1.66,3.11-4.38,5.95-6.91,7.22-13.3,6.05-24.68,13.59-34.04,22.39q-.45,.4-.91,.65c-.09-.04-.2-.08-.29-.12-.03-.6,.12-1.2,1.07-3.13l10.7-21.22Zm-7.63,5.22c-.77,1.62-1.5,3.25-2.18,4.9-1.11,1.71-2.16,3.45-3.16,5.22l5.34-10.12Zm-9.38,33.29c23.54-21.19,59.23-34.68,105.55-37.27,131.82-7.36,300.54,76.31,376.09,186.53,28.04,40.9,39.37,79.8,35.8,112.92-24.16,21.13-60.06,33.71-104.81,36.2-64.04,3.58-138.55-13.91-209.79-49.24-71.25-35.34-130.7-84.29-167.41-137.84-27.21-39.69-39.01-77.79-35.43-111.3ZM10.78,185.48c-2.41-12.43-3.06-24.46-1.91-35.92,.34-2.58,1.84-6.31,3.13-8.93l10.7-21.23c.99-1.92,1.4-2.44,1.93-2.86,.11,.06,.25,.15,.36,.21,.02,.25,.03,.57,.02,.82-1.15,11.46-.5,23.48,1.91,35.92,.37,2.45-.38,6.08-1.9,9.27l-10.7,21.22c-.76,1.42-2.62,4.42-3.53,1.51Zm25.65,53.2c-1.62,2.97-3.66,3.47-5.05,1.25-7.34-13.28-12.94-26.37-16.79-39.11-.61-2.45,0-6.02,1.57-9.34l10.7-21.23c1.13-2.12,2.72-4.09,3.85-1.43,3.85,12.74,9.46,25.83,16.79,39.11,1.26,2.58,1.11,6.32-.38,9.53l-10.7,21.22Zm37.26,59.52c-10.7-11.7-20.32-23.76-28.75-36.05-.8-1.16-1.58-2.32-2.35-3.48-1.51-2.55-1.51-6.3-.01-9.56l10.7-21.22c1.99-3.61,4.11-2.99,5.44-1.21,.77,1.16,1.55,2.32,2.35,3.48,8.43,12.3,18.06,24.35,28.76,36.05,2.04,2.48,2.41,6.15,.96,9.36l-10.7,21.22c-1.69,3.02-4.2,3.57-6.4,1.41Zm67.1,51.14c-1.72,3.03-4.64,3.78-7.44,1.9-15.09-11.25-29.16-23.14-42.04-35.52-2.22-2.37-2.72-6.01-1.25-9.26l10.7-21.22c1.7-3.03,4.26-3.61,6.68-1.52,12.88,12.38,26.95,24.26,42.04,35.52,2.64,2.19,3.44,5.67,2.01,8.87l-10.7,21.22Zm64.73,46.98c-17.71-9.1-34.66-19.04-50.66-29.69-2.79-2.06-3.67-5.49-2.23-8.71l10.7-21.23c1.73-3.04,4.67-3.83,7.66-2.05,16,10.64,32.94,20.58,50.66,29.69,3.11,1.8,4.22,5.01,2.82,8.19l-10.7,21.22c-1.74,3.05-4.98,4.06-8.25,2.58Zm95.06,7.08l-10.7,21.22c-1.75,3.08-5.01,4.49-8.34,3.58-18.07-5.92-36.22-13.03-54.22-21.28-3.16-1.65-4.29-4.78-2.88-7.99l10.7-21.22c1.73-3.02,4.99-4.11,8.31-2.78,18,8.25,36.15,15.36,54.22,21.28,3.21,1.24,4.32,3.99,2.9,7.19Zm77.89,17.22l-10.7,21.22c-1.74,3.11-4.92,4.96-8.11,4.7-17.4-2.32-35.19-5.91-53.15-10.71-3.17-1.03-4.29-3.75-2.88-6.92l10.7-21.22c1.73-3.05,4.98-4.56,8.31-3.85,17.97,4.8,35.75,8.39,53.15,10.71,3.08,.58,4.11,2.9,2.69,6.07Zm55.34,27.56c-3.79,.37-7.65,.67-11.57,.89-12.17,.68-24.72,.6-37.54-.22-2.99-.36-4-2.62-2.58-5.76l10.7-21.23c1.72-3.08,4.86-5.04,8.01-5,12.83,.82,25.38,.9,37.55,.22,3.93-.22,7.79-.52,11.57-.89,2.13-.1,3.8,1.13,2.08,4.87l-10.7,21.22c-1.73,3.16-4.67,5.47-7.51,5.91Zm60.09-14.59c-11.79,5.14-24.97,9.1-39.37,11.81-2.55,.33-3.26-1.47-1.81-4.58l10.7-21.22c1.68-3.11,4.53-5.53,7.23-6.19,14.41-2.71,27.58-6.67,39.38-11.81,2.32-.88,2.08,1.18,1.17,3.21-.08,.16-.18,.38-.26,.54l-10.7,21.22c-1.72,3.25-4.15,5.94-6.34,7.03Zm46.27-36.51c-1.35,2.62-3.38,6.11-5.05,8.01-7.67,8.33-16.9,15.57-27.56,21.66-2.29,1.16-1.49-1.47-1.3-2.01,.19-.55,.46-1.11,.66-1.52l10.7-21.22c1.64-3.12,4.03-5.96,6.08-7.24,9.99-5.71,18.72-12.43,26.09-20.1-.45,2.19-.98,4.34-1.57,6.47l-8.05,15.96Zm31.28-60.64c-1.03,3.09-3.28,7.69-3.95,9.03l-2.17,4.3c-2.28,2.98-4.74,5.84-7.38,8.57,1.83-8.89,2.51-18.26,2.02-28.02-.05-2.68,.9-6.45,2.43-9.62l10.7-21.22c1-1.89,1.49-2.34,2.22-2.61q.63,.32,.79,1.46c.68,13.54-.9,26.32-4.65,38.12Z"/>
        <path class="cls-1" d="M556.1,369.26l-10.7,21.23c-.9,1.82-1.19,2.51-1.28,2.85l14.48-28.71c-1.2,2.09-2.11,3.86-2.5,4.63ZM37.96,79.26c1-1.77,2.05-3.51,3.16-5.22,.68-1.65,1.41-3.28,2.18-4.9l-5.34,10.12Z"/>
      </g>
    </g>
  </g>
</svg>