<svg version="1.1" id="Layer_1" xmlns="http://www.w3.org/2000/svg" xmlns:xlink="http://www.w3.org/1999/xlink" x="0px" y="0px"
	 width="100%" viewBox="0 0 1024 560" enable-background="new 0 0 1024 560" xml:space="preserve">
<path fill="#000000" opacity="1.000000" stroke="none" 
	d="
M408.755219,121.787140 
	C428.795380,99.478271 453.891571,86.974113 482.474213,80.801254 
	C489.509613,79.281853 489.594849,79.367256 489.607574,71.982979 
	C489.631409,58.149952 489.786469,44.312870 489.489655,30.486004 
	C489.391815,25.927813 490.985779,24.826298 495.236664,24.901955 
	C508.065796,25.130295 520.901489,24.975487 533.734558,25.003517 
	C540.237061,25.017721 540.281860,25.077848 540.288208,31.833807 
	C540.301270,45.666889 540.389832,59.501118 540.229187,73.332344 
	C540.185181,77.123581 541.419800,78.339897 545.298096,78.807602 
	C579.571716,82.940819 610.914551,94.383751 637.846252,116.614769 
	C640.856445,119.099579 641.812256,121.221161 639.750793,125.033783 
	C630.005310,143.057907 620.554199,161.241104 610.983337,179.359772 
	C610.604553,180.076889 610.075256,180.714462 609.719910,181.236511 
	C607.469910,181.737885 606.380371,180.206268 605.146057,179.229614 
	C584.357727,162.780411 561.110107,151.485916 534.788696,147.868713 
	C514.499756,145.080521 494.512878,146.207382 476.822510,158.769272 
	C455.184235,174.134537 448.355408,205.051376 473.710449,224.843719 
	C488.900696,236.701340 506.476257,243.911240 523.856934,251.525345 
	C547.343506,261.814331 571.410583,270.875153 593.306458,284.493225 
	C613.578247,297.101166 631.644470,312.221283 641.452026,334.543121 
	C658.235535,372.741974 655.069214,410.135559 632.576904,445.044434 
	C612.410400,476.343689 581.941406,492.292450 545.848511,498.306366 
	C541.861389,498.970703 540.171875,500.399811 540.241455,504.694672 
	C540.470886,518.857239 540.216370,533.027161 540.371216,547.191772 
	C540.412964,551.014893 539.309998,552.493164 535.267700,552.431396 
	C521.604431,552.222595 507.934326,552.231873 494.270691,552.427673 
	C490.145660,552.486755 489.323029,550.934021 489.398193,547.084534 
	C489.667664,533.275024 489.480560,519.457214 489.603760,505.643768 
	C489.647156,500.778076 487.729645,498.870483 482.674561,498.079010 
	C443.722168,491.980560 409.132477,476.263824 379.508606,450.050537 
	C373.627869,444.846832 373.630219,444.632812 378.147491,438.328247 
	C389.403717,422.618530 400.839081,407.036835 412.045532,391.292023 
	C414.338928,388.069855 415.921356,388.357910 418.713867,390.746735 
	C437.553497,406.862427 458.609192,419.213623 482.526672,426.012695 
	C503.543793,431.987335 524.751221,433.666412 545.816467,425.671844 
	C568.310303,417.135071 581.388428,392.240479 574.031067,371.334717 
	C570.148071,360.301056 561.717773,352.918365 552.465637,346.429260 
	C538.323792,336.510742 522.538330,329.717743 506.855682,322.753784 
	C482.193054,311.802368 457.249725,301.409332 434.599518,286.461853 
	C416.829010,274.734589 401.043030,260.849365 391.668121,241.377197 
	C374.743805,206.224380 377.760773,171.690308 396.702118,138.136490 
	C399.983551,132.323532 404.027954,127.010559 408.755219,121.787140 
z"/>
</svg>