<svg version="1.1" id="Layer_1" xmlns="http://www.w3.org/2000/svg" xmlns:xlink="http://www.w3.org/1999/xlink" x="0px" y="0px"
	 width="100%" viewBox="0 0 1024 560" enable-background="new 0 0 1024 560" xml:space="preserve">
<path fill="#000000" opacity="1.000000" stroke="none" 
	d="
M626.999329,39.639168 
	C689.077271,37.658829 750.767395,85.446487 761.116699,155.306976 
	C761.969299,161.061752 762.386597,166.857697 762.381226,172.714996 
	C762.310974,249.031845 762.487000,325.349182 762.291138,401.665619 
	C762.166748,450.139893 741.187744,487.890106 701.578552,515.228699 
	C679.492737,530.472534 654.657043,537.872559 627.743469,537.879089 
	C552.592957,537.897217 477.441559,537.662109 402.292328,537.970642 
	C366.162170,538.118958 334.485992,526.953430 307.786896,502.689209 
	C283.773865,480.866119 269.315521,453.701904 264.537384,421.459930 
	C263.823456,416.642639 263.624908,411.860779 263.613953,407.037476 
	C263.437836,329.402374 263.111084,251.767197 263.153748,174.132217 
	C263.190460,107.370529 312.749298,50.336845 378.617340,40.528717 
	C383.606110,39.785862 388.559967,39.648335 393.550507,39.647541 
	C471.200165,39.635185 548.849854,39.639004 626.999329,39.639168 
M345.500092,212.373138 
	C333.170227,212.377335 320.837494,212.536133 308.511963,212.307220 
	C303.793121,212.219589 302.276611,213.717377 302.288940,218.584183 
	C302.442596,279.234344 302.355957,339.885132 302.426605,400.535614 
	C302.433014,406.017029 302.699127,411.559174 303.526031,416.968964 
	C310.570312,463.054749 351.636871,498.551788 398.287140,498.636139 
	C474.766602,498.774414 551.246521,498.717468 627.726135,498.635498 
	C641.049866,498.621216 653.957092,495.765472 665.878784,489.894684 
	C703.257751,471.487518 722.921570,441.542908 723.014526,399.556549 
	C723.147034,339.739441 723.003479,279.921753 722.989441,220.104324 
	C722.987671,212.379990 723.019592,212.379395 715.402344,212.379272 
	C592.434937,212.377441 469.467529,212.375809 345.500092,212.373138 
M527.462646,78.390228 
	C498.637207,78.386398 469.811737,78.378792 440.986298,78.381348 
	C433.662476,78.381996 432.762726,79.845184 436.336792,86.101479 
	C452.033997,113.578674 467.801636,141.015854 483.409821,168.543442 
	C485.208466,171.715637 487.341278,172.906738 490.959137,172.893524 
	C522.949890,172.776596 554.941284,172.834335 586.932373,172.783905 
	C588.657166,172.781189 590.617310,173.367889 592.125549,171.732742 
	C591.946167,169.101974 590.434692,167.042679 589.219788,164.915710 
	C574.515076,139.171936 559.434448,113.634712 545.225525,87.621025 
	C541.182190,80.218430 536.546692,76.933136 527.462646,78.390228 
M617.640198,134.916626 
	C624.011841,146.040924 630.530884,157.084869 636.666260,168.337997 
	C638.534058,171.763794 640.734680,172.944809 644.538086,172.919128 
	C666.521057,172.770645 688.505432,172.839066 710.489380,172.852142 
	C723.502747,172.859894 723.502686,172.874893 721.653931,159.954453 
	C716.297852,122.522324 686.032166,89.740753 649.210083,81.252808 
	C630.121643,76.852699 610.769470,78.761360 591.511292,78.511475 
	C587.232666,78.455956 586.481750,80.386505 588.773193,84.416130 
	C598.237061,101.058899 607.770569,117.662071 617.640198,134.916626 
M399.500000,172.813873 
	C412.526581,172.813873 425.553192,172.813873 438.484680,172.813873 
	C438.815826,169.850159 437.977448,168.569138 437.243164,167.289032 
	C423.078094,142.594620 408.979004,117.861847 394.691162,93.238602 
	C386.293427,78.766159 386.156372,78.845688 370.196960,83.425758 
	C334.318390,93.722282 305.094696,129.720734 303.150208,166.015671 
	C302.801208,172.529358 303.030457,172.825470 309.564728,172.828278 
	C339.209808,172.841019 368.854919,172.821732 399.500000,172.813873 
z"/>
<path fill="#000000" opacity="1.000000" stroke="none" 
	d="
M534.069824,296.890320 
	C548.970459,306.728638 563.605652,316.316498 578.170776,326.009521 
	C595.180054,337.329041 595.107544,358.011292 578.082764,369.247406 
	C551.940491,386.500885 525.800598,403.758148 499.653931,421.004944 
	C495.192657,423.947632 490.717041,426.822540 485.146301,427.270935 
	C470.377045,428.459625 457.977753,418.021210 457.854431,403.159485 
	C457.544708,365.828888 457.557556,328.493073 457.800354,291.161652 
	C457.910034,274.301270 478.244812,260.629852 496.145569,272.034790 
	C506.964233,278.927612 517.629517,286.061218 528.360840,293.091095 
	C530.172546,294.277924 531.969543,295.487366 534.069824,296.890320 
z"/>
</svg>