<svg version="1.1" id="Layer_1" xmlns="http://www.w3.org/2000/svg" xmlns:xlink="http://www.w3.org/1999/xlink" x="0px" y="0px"
	 width="100%" viewBox="0 0 1024 560" enable-background="new 0 0 1024 560" xml:space="preserve">
<path fill="#FFF" opacity="1.000000" stroke="none" 
	d="
M347.468658,561.000000 
	C338.760223,559.085083 330.417816,557.527588 322.297974,555.195251 
	C280.392059,543.158447 245.436768,521.026123 221.260590,483.937500 
	C207.763046,463.230988 200.024933,440.643311 201.659363,415.501343 
	C203.128159,392.907043 212.755005,375.241058 233.349258,364.697998 
	C245.254623,358.603149 257.029999,352.463898 266.729248,343.017181 
	C280.146362,329.949341 287.703247,314.450531 286.973358,295.359528 
	C286.649048,286.876556 287.636536,278.322632 286.262024,269.905579 
	C282.920929,249.445175 270.809784,234.962311 254.110092,223.745178 
	C247.869354,219.553314 241.125000,216.287125 234.416763,212.927628 
	C212.938660,202.171356 202.917877,184.021561 201.706863,160.667587 
	C199.908844,125.993622 214.305145,97.485527 236.931000,72.678009 
	C263.702667,43.324936 297.705322,26.754848 336.191864,18.653830 
	C360.793884,13.475352 385.671539,11.890795 410.676819,13.873919 
	C462.151215,17.956251 509.816345,33.436852 552.467834,63.009117 
	C596.458008,93.509575 628.825378,133.520218 649.685181,182.849136 
	C651.271301,186.599915 651.940796,190.826508 654.937134,194.294846 
	C660.564331,190.980942 665.009705,186.457901 669.740662,182.364029 
	C712.089111,145.718292 755.739502,110.679932 800.067627,76.473511 
	C810.049927,68.770500 821.613892,70.115936 826.545349,79.723793 
	C829.948059,86.353142 828.765503,92.631744 824.227356,98.368423 
	C808.724792,117.965286 793.334595,137.652756 777.674744,157.123215 
	C744.156616,198.797241 709.333191,239.372543 673.970093,279.484406 
	C671.344482,282.462616 670.352234,285.476807 670.337036,289.381714 
	C670.092041,352.380035 650.718811,408.868530 611.657898,458.297821 
	C572.358643,508.028687 521.428772,539.946655 460.004089,555.183350 
	C451.301208,557.342102 442.424042,558.798096 433.313782,560.789673 
	C404.645782,561.000000 376.291534,561.000000 347.468658,561.000000 
M353.244293,544.041626 
	C379.642212,548.365112 406.048431,547.259033 432.315521,543.317017 
	C462.683990,538.759399 491.591949,529.361633 518.603699,514.598877 
	C560.338257,491.789581 593.497009,460.023468 617.911499,419.135803 
	C634.783569,390.879486 645.168518,360.320374 650.456909,327.978638 
	C651.718750,320.261383 652.860535,312.424774 652.561096,303.509888 
	C647.770203,308.754669 643.726990,313.142273 639.725586,317.567749 
	C613.801270,346.239197 587.709167,374.754669 560.175049,401.903442 
	C557.439026,404.601196 555.836304,407.486542 554.856995,411.187836 
	C546.905457,441.242828 531.092102,466.039124 505.182220,483.789703 
	C479.996765,501.043915 451.590790,508.286621 421.524078,510.486237 
	C412.042816,511.179840 404.582062,508.505127 400.367462,499.805878 
	C396.100250,490.998016 398.309052,483.104736 404.889313,476.026917 
	C412.610504,467.721924 417.684937,457.843628 421.287354,447.127411 
	C425.966888,433.207092 428.374908,418.749146 431.755066,404.517487 
	C439.321808,372.658691 457.891174,351.183472 490.615509,343.492157 
	C493.175964,342.890381 495.055084,341.384827 496.857971,339.587158 
	C503.347107,333.116760 509.802063,326.607391 516.441162,320.292816 
	C555.440735,283.199860 595.239563,246.980698 635.875000,211.689072 
	C639.339233,208.680435 640.098816,206.020340 638.573547,201.808807 
	C622.111389,156.353699 595.265503,118.239449 557.434753,88.173409 
	C518.868774,57.523056 474.953400,39.285168 426.016022,32.960693 
	C396.872711,29.194323 367.912201,29.248251 339.128326,35.454239 
	C301.742188,43.514927 269.146942,60.205357 244.624023,90.263008 
	C227.054810,111.797546 215.729797,135.897751 219.326065,164.693130 
	C221.148117,179.282440 228.379379,190.594299 241.824600,197.427017 
	C247.019623,200.067047 252.341476,202.505188 257.330872,205.493881 
	C278.936584,218.435867 295.330963,235.678986 301.984863,260.737061 
	C305.153076,272.668427 304.219482,284.876709 304.309143,297.009338 
	C304.415100,311.348022 300.590057,324.620972 293.346802,336.959351 
	C282.091064,356.132782 265.171082,368.967621 245.342804,377.690521 
	C225.263916,386.523651 217.515030,405.507599 218.497925,424.727936 
	C219.421936,442.796661 225.500122,459.334900 235.436218,474.246307 
	C263.268738,516.015686 304.096497,536.283203 353.244293,544.041626 
M754.666504,134.182434 
	C677.451233,196.782455 602.687256,262.168762 530.716187,330.303894 
	C543.644470,343.182159 556.106262,355.595764 569.038574,368.478027 
	C651.520691,281.637146 730.104980,191.071579 803.281433,95.718620 
	C787.252441,108.382339 771.223389,121.046059 754.666504,134.182434 
M478.050812,479.558594 
	C508.019501,465.278809 527.730896,442.252258 537.342102,410.452698 
	C538.664429,406.077789 537.965942,403.157318 534.639160,399.942352 
	C522.898682,388.596649 511.123871,377.247772 500.071411,365.246857 
	C495.348877,360.119141 491.138031,360.320343 485.595612,362.538574 
	C462.669769,371.714020 451.857727,389.893188 447.312164,413.039703 
	C442.003021,440.074158 436.581177,467.118073 416.979980,488.435547 
	C416.102936,489.389343 415.118164,490.544830 415.925323,492.003021 
	C416.776123,493.540070 418.304291,493.649200 419.861420,493.533630 
	C439.762299,492.056519 459.064362,488.065552 478.050812,479.558594 
M544.169067,385.300507 
	C547.151001,389.467621 549.583618,388.358307 552.908813,385.204254 
	C556.521790,381.777283 555.051331,379.924072 552.308411,377.237854 
	C541.960571,367.104004 531.787476,356.791840 521.512390,346.583252 
	C520.379944,345.458130 519.519165,343.841949 517.363464,343.781830 
	C515.028748,346.075195 512.006165,347.911530 510.322632,351.857147 
	C521.431030,362.829742 532.553772,373.816528 544.169067,385.300507 
z"/>
<path fill="#FFF" opacity="1.000000" stroke="none" 
	d="
M350.828003,176.857193 
	C321.091827,203.495514 281.854065,188.782822 269.342590,161.427841 
	C255.071533,130.225708 275.390106,93.306259 309.509827,89.612289 
	C331.787842,87.200371 351.987823,98.257210 361.583893,118.116066 
	C371.063904,137.734726 366.947693,160.659378 350.828003,176.857193 
M341.338470,118.181610 
	C330.293488,106.650726 315.520966,103.262192 302.259460,108.977249 
	C291.255096,113.719582 280.697266,126.202820 282.136139,143.723801 
	C283.713165,162.926758 304.580505,178.104691 323.198364,172.917068 
	C348.155121,165.963150 357.143036,139.775970 341.338470,118.181610 
z"/>
<path fill="#FFF" opacity="1.000000" stroke="none" 
	d="
M374.238617,421.347656 
	C376.574158,447.325714 359.511902,466.026764 337.888824,470.621643 
	C314.562714,475.578430 289.282928,457.634399 285.647400,434.028564 
	C281.635376,407.978088 299.917328,385.267426 324.467377,382.252747 
	C343.498260,379.915802 367.029449,390.852997 373.218445,416.003876 
	C373.615082,417.615601 373.883850,419.258850 374.238617,421.347656 
M304.604462,437.771515 
	C305.319550,439.083893 305.942963,440.456909 306.764252,441.699066 
	C313.090240,451.266724 324.674347,455.950439 335.904572,453.528442 
	C347.206207,451.091064 355.800842,441.262695 357.498840,428.834351 
	C358.760132,419.602814 352.300995,407.799896 343.183167,402.674988 
	C333.505798,397.235596 320.776642,398.378418 312.300812,405.447632 
	C302.998260,413.206268 300.103699,424.639191 304.604462,437.771515 
z"/>
<path fill="#FFF" opacity="1.000000" stroke="none" 
	d="
M451.903015,170.248474 
	C426.040344,173.451782 405.133392,155.894333 401.066467,132.359695 
	C396.798737,107.662987 417.590576,82.456238 442.639160,81.487885 
	C468.365204,80.493355 486.683258,99.276657 489.508453,118.969421 
	C492.792450,141.860504 479.288361,163.056046 456.707886,169.224640 
	C455.266388,169.618408 453.790497,169.886337 451.903015,170.248474 
M470.015106,138.395401 
	C470.555969,137.004807 471.189209,135.642395 471.623108,134.219193 
	C475.120300,122.748848 470.953430,110.393959 461.379547,103.733093 
	C451.491455,96.853539 438.089355,97.028824 428.748657,104.159851 
	C419.295624,111.376640 415.375641,123.728050 419.430420,134.968430 
	C423.334595,145.791336 431.332642,152.310425 442.701782,153.415527 
	C454.512512,154.563553 463.592041,149.313889 470.015106,138.395401 
z"/>
<path fill="#FFF" opacity="1.000000" stroke="none" 
	d="
M578.225525,156.746826 
	C599.487671,176.982330 592.081543,211.492798 565.199829,220.982285 
	C547.183228,227.342316 528.199524,219.810898 519.043030,203.180389 
	C510.456848,187.585907 514.154358,167.304428 527.656128,155.935669 
	C542.457336,143.472809 562.439575,143.700912 578.225525,156.746826 
M538.130493,169.618652 
	C528.934326,179.601562 529.281433,192.664078 538.963562,200.972473 
	C547.698975,208.468445 561.524231,207.139862 568.872070,198.098236 
	C575.371155,190.101120 574.970581,178.115372 567.955872,170.686401 
	C560.144409,162.413620 548.388855,161.790421 538.130493,169.618652 
z"/>
</svg>