<svg version="1.1" id="Layer_1" xmlns="http://www.w3.org/2000/svg" xmlns:xlink="http://www.w3.org/1999/xlink" x="0px" y="0px"
	 width="100%" viewBox="0 0 768 768" enable-background="new 0 0 1366 768" xml:space="preserve">
<path fill="#fff" opacity="1.000000" stroke="none" 
	d="
M590.999695,751.369019 
	C574.707092,751.190552 558.788452,752.454895 543.331360,747.968994 
	C498.808868,735.047852 471.160522,705.915771 460.759094,660.805359 
	C458.872192,652.622131 458.527710,643.961548 458.429932,635.510254 
	C458.138855,610.350830 458.325226,585.185852 458.325073,560.023071 
	C458.325043,558.231323 458.325073,556.439575 458.325073,554.169312 
	C456.068604,554.169312 454.278259,554.169373 452.487915,554.169312 
	C426.658569,554.168884 400.828949,554.236267 374.999939,554.141541 
	C360.474609,554.088318 350.181610,546.355286 346.664795,532.916504 
	C345.963165,530.235352 345.957153,527.321838 345.955231,524.515320 
	C345.916870,469.023865 346.244904,413.529327 345.712372,358.042969 
	C345.571381,343.354370 357.128113,328.599030 374.902863,328.768738 
	C400.729858,329.015411 426.560974,328.831116 452.390350,328.830627 
	C454.186432,328.830597 455.982544,328.830627 458.325073,328.830627 
	C458.325073,326.465515 458.325073,324.520050 458.325104,322.574585 
	C458.325470,259.417633 458.247620,196.260544 458.350067,133.103760 
	C458.437531,79.185966 493.569458,34.352173 545.830750,21.563553 
	C552.397522,19.956617 559.322021,19.120378 566.083374,19.105356 
	C642.071350,18.936531 718.060242,19.141748 794.047607,18.870024 
	C808.158386,18.819565 820.967407,22.493839 831.905151,30.660206 
	C846.274414,41.388599 860.345703,52.720974 873.284485,65.110107 
	C890.460571,81.556595 906.315186,99.376236 922.957642,116.390633 
	C928.998291,122.566284 935.707214,128.084824 942.050659,133.968491 
	C964.294983,154.600510 985.794250,175.964142 1004.279480,200.103638 
	C1012.505005,210.845169 1019.383362,222.448822 1021.421631,236.210159 
	C1021.834167,238.995239 1021.977905,241.843597 1021.978516,244.662842 
	C1022.004639,375.642700 1022.001343,506.622559 1022.001343,637.602417 
	C1022.001343,690.375732 988.156738,734.713074 937.045227,747.775391 
	C926.872681,750.375061 916.004028,751.196533 905.452576,751.221130 
	C800.802124,751.465149 696.150757,751.369019 590.999695,751.369019 
M514.853760,264.499939 
	C514.853760,285.787811 514.853760,307.075684 514.853760,328.831665 
	C517.238342,328.831665 519.197449,328.831665 521.156555,328.831665 
	C621.476929,328.831665 721.797363,328.821869 822.117737,328.840210 
	C841.373291,328.843750 852.987732,340.400543 852.994080,359.515869 
	C853.012451,414.508759 853.005920,469.501617 852.980652,524.494507 
	C852.979675,526.647949 852.929688,528.852356 852.489868,530.946411 
	C849.366455,545.816162 838.454529,554.158325 822.118164,554.160767 
	C721.797791,554.175781 621.477356,554.168274 521.156982,554.168274 
	C519.202393,554.168274 517.247742,554.168274 515.081665,554.168274 
	C514.983948,555.581360 514.859558,556.543396 514.859314,557.505432 
	C514.852234,583.668701 514.840027,609.832031 514.886658,635.995178 
	C514.891663,638.816284 514.993896,641.681885 515.483337,644.450439 
	C520.672607,673.803040 543.218445,692.443909 573.959534,692.463745 
	C684.778564,692.535400 795.597595,692.498413 906.416626,692.479126 
	C915.828857,692.477478 925.076477,691.190491 933.513977,686.801575 
	C955.197266,675.522705 965.848633,657.460510 965.849548,633.074158 
	C965.853943,512.922974 965.849854,392.771820 965.846252,272.620667 
	C965.846252,271.287872 965.859741,269.952545 965.787598,268.622681 
	C965.060547,255.221481 958.424927,246.739517 945.222229,244.099686 
	C936.626831,242.381058 927.752014,241.385071 918.989929,241.295975 
	C887.164001,240.972305 855.332764,241.183029 823.503540,241.158325 
	C812.756165,241.149994 804.159729,236.863312 799.822021,226.854980 
	C797.718872,222.002411 796.927246,216.259933 796.852417,210.902039 
	C796.375244,176.747650 796.388000,142.586563 795.943176,108.431519 
	C795.832336,99.918968 794.185791,91.526459 789.323425,84.194199 
	C785.410217,78.293106 780.188660,74.939247 772.747009,74.949135 
	C706.255676,75.037506 639.762451,75.288193 573.273499,74.881088 
	C539.302673,74.673088 514.025757,102.213867 514.637939,133.520844 
	C515.484924,176.832047 514.852600,220.172195 514.853760,264.499939 
M675.206665,412.322296 
	C672.950623,401.959381 668.982727,392.342346 662.502563,383.886017 
	C648.991211,366.254150 629.773804,359.692810 608.855530,358.154572 
	C590.115540,356.776550 571.235535,357.269806 552.416199,357.018158 
	C544.204590,356.908325 542.980347,358.218140 542.979858,366.454681 
	C542.977112,416.451538 542.976624,466.448395 542.978088,516.445251 
	C542.978333,525.162354 544.775696,527.283997 553.579407,527.973938 
	C571.384216,529.369263 589.172180,529.614868 606.922241,526.967896 
	C641.835083,521.761536 664.989746,502.846100 674.511047,468.524323 
	C679.581970,450.244934 679.352356,431.661133 675.206665,412.322296 
M444.216187,474.669983 
	C444.216187,473.212830 444.216187,471.755676 444.216187,470.231781 
	C450.111298,469.786560 455.573761,469.555054 460.991608,468.934357 
	C488.773560,465.751801 505.505341,451.526031 511.805634,425.780548 
	C512.713684,422.069885 513.398499,418.295563 514.004089,414.521423 
	C517.345337,393.698914 507.135315,374.107117 488.193115,365.230286 
	C484.453491,363.477783 480.500061,362.085663 476.524963,360.947479 
	C454.912170,354.759094 432.995514,356.520111 411.110260,358.864563 
	C403.382935,359.692352 402.000732,361.651703 402.000549,369.443878 
	C401.999451,417.934814 401.942169,466.425934 402.091827,514.916382 
	C402.106384,519.630432 403.402893,524.340576 404.096527,529.000000 
	C415.630005,529.000000 425.790833,529.020935 435.951477,528.992432 
	C442.370972,528.974487 444.196106,527.135681 444.207642,520.631470 
	C444.234283,505.634308 444.216156,490.637085 444.216187,474.669983 
M792.351685,424.496307 
	C778.918457,424.496307 765.485229,424.496307 751.932129,424.496307 
	C751.932129,414.899109 751.932129,405.857147 751.932129,396.503693 
	C754.078064,396.503693 755.887756,396.503723 757.697510,396.503723 
	C771.686951,396.503632 785.676636,396.542175 799.665833,396.485992 
	C806.014526,396.460510 807.928467,394.447571 807.951599,388.049255 
	C807.978149,380.721527 807.964783,373.393677 807.955688,366.065857 
	C807.946472,358.663635 806.296509,357.003021 798.890747,357.000824 
	C772.077637,356.992889 745.264526,356.993958 718.451416,357.000061 
	C710.660278,357.001831 709.180237,358.496948 709.179810,366.332153 
	C709.177063,417.293732 709.177734,468.255280 709.178284,519.216858 
	C709.178284,520.382629 709.091309,521.558594 709.212463,522.712219 
	C709.615112,526.544861 711.650391,528.925476 715.625732,528.962708 
	C725.450745,529.054626 735.278137,529.078613 745.102478,528.955750 
	C749.319824,528.903015 751.429199,526.319824 751.550354,522.227173 
	C751.673584,518.067261 751.589111,513.901001 751.589539,509.737518 
	C751.591125,494.627655 751.590149,479.517792 751.590149,464.002289 
	C753.590759,464.002289 755.223572,464.002289 756.856384,464.002289 
	C770.679321,464.002289 784.502380,463.959503 798.325012,464.027466 
	C802.637817,464.048645 804.960205,462.019836 805.015564,457.808167 
	C805.133728,448.816559 805.062378,439.822235 805.044189,430.829071 
	C805.036499,427.016327 802.950317,424.988312 799.290283,424.607697 
	C797.311401,424.401917 795.298645,424.522827 792.351685,424.496307 
z"/>
<path fill="#fff" opacity="1.000000" stroke="none" 
	d="
M625.276001,406.785767 
	C631.820312,416.358154 631.846497,426.789856 630.876160,437.348846 
	C630.101501,445.779205 629.903809,454.371979 628.036987,462.570953 
	C623.420532,482.846954 611.095276,492.235291 591.318054,492.175140 
	C588.508911,492.166626 585.699768,492.173981 582.622986,492.173981 
	C582.622986,459.255035 582.622986,426.691620 582.622986,393.589111 
	C598.249634,393.454773 613.881531,392.360291 625.276001,406.785767 
z"/>
<path fill="#fff" opacity="1.000000" stroke="none" 
	d="
M460.491760,429.683838 
	C454.201996,431.291351 448.221924,432.692413 441.677246,434.225769 
	C441.677246,419.792419 441.677246,406.921539 441.677246,392.827698 
	C448.665253,393.637115 455.442719,393.849915 461.925110,395.343445 
	C467.724396,396.679565 470.129608,400.944550 469.986298,406.947296 
	C469.779694,415.602600 468.668365,423.927612 460.491760,429.683838 
z"/>
</svg>