<svg version="1.1" id="Layer_1" xmlns="http://www.w3.org/2000/svg" xmlns:xlink="http://www.w3.org/1999/xlink" x="0px" y="0px"
	 width="100%" viewBox="0 0 1024 560" enable-background="new 0 0 1024 560" xml:space="preserve">
<path fill="#FFF" opacity="1.000000" stroke="none" 
	d="
M267.468658,561.000000 
	C260.813965,555.837097 258.214569,549.184082 258.236053,541.182007 
	C258.303101,516.209290 261.945038,491.803680 269.296021,467.937592 
	C278.518463,437.995636 292.748840,410.685089 312.138000,386.067719 
	C316.624756,380.371124 316.713928,380.276337 311.819855,374.854767 
	C285.022705,345.169037 251.909988,329.251038 211.642960,328.118927 
	C146.476227,326.286713 88.951698,372.397308 75.730293,436.623108 
	C73.949539,445.273529 73.226189,454.032379 73.151871,462.897400 
	C73.044922,475.653442 65.574387,484.316345 53.234638,486.802551 
	C39.930683,489.483002 26.610210,478.794403 26.695820,465.149750 
	C27.157284,391.600861 61.070793,337.982941 124.250389,301.876617 
	C125.961929,300.898499 127.957047,300.321808 129.494324,298.060364 
	C97.841393,267.210144 84.196602,229.966034 92.353867,185.920059 
	C97.831047,156.345474 113.084183,132.325729 137.080673,114.272919 
	C185.001648,78.221436 252.511322,82.963730 293.667389,125.170151 
	C317.268158,149.373245 328.970490,178.662598 328.027039,212.425598 
	C327.083466,246.193283 313.237305,274.492371 288.830261,297.535889 
	C289.808075,299.995087 291.803772,300.667908 293.492004,301.581940 
	C313.610382,312.474487 331.534698,326.137238 346.535492,343.492737 
	C348.468506,345.729156 350.001251,347.110382 353.037476,344.608765 
	C371.952362,329.024506 392.910889,316.834015 415.585114,307.562103 
	C416.461975,307.203583 417.212708,306.536682 418.017273,306.016663 
	C417.452576,303.402893 415.414581,302.362640 413.776245,301.074951 
	C382.581818,276.556824 361.742889,245.199310 354.378387,206.156494 
	C342.357086,142.426132 361.656647,89.114052 411.068329,47.127586 
	C435.372559,26.475582 464.159882,15.254997 495.636536,11.910745 
	C567.751770,4.248832 636.142761,45.045101 663.427063,112.991150 
	C671.038147,131.944885 675.097290,151.631485 675.059753,171.898972 
	C674.980957,214.461456 660.680786,251.775803 631.641357,283.150360 
	C625.416809,289.875427 618.779053,296.189209 611.404297,301.713318 
	C607.379150,304.728363 607.655701,306.306671 612.210876,308.275269 
	C633.743652,317.580963 653.776306,329.386871 672.082092,344.076996 
	C674.429138,345.960480 676.272583,346.792847 678.777649,343.929962 
	C694.313660,326.174622 712.702820,312.012543 733.573730,301.039307 
	C734.852966,300.366760 736.354858,299.842285 737.076294,297.758209 
	C709.688416,271.642120 695.714966,239.508240 698.006042,201.333572 
	C699.936279,169.170319 713.220154,141.897903 737.328491,120.336098 
	C783.919312,78.666618 854.659241,80.408913 899.084412,123.064529 
	C915.219727,138.557159 926.222473,157.047775 931.881165,178.712097 
	C937.484619,200.165253 937.108704,221.599197 930.913330,242.785126 
	C924.655823,264.183380 912.856018,282.337494 896.344788,297.543060 
	C897.965271,300.148376 900.247070,301.177429 902.389648,302.353790 
	C950.252625,328.632935 980.972229,368.247589 994.532166,421.105072 
	C998.144470,435.185883 999.607422,449.561066 999.358643,464.122345 
	C999.155151,476.030792 990.737976,485.428894 978.497803,487.052551 
	C967.647644,488.491852 956.549988,480.642822 953.686096,469.629730 
	C951.903870,462.776001 952.643738,455.726471 951.870239,448.778168 
	C948.545532,418.911896 936.671875,393.046295 916.255432,371.186615 
	C893.288818,346.596527 864.817444,331.911835 831.434631,328.772919 
	C783.765442,324.290771 743.786743,340.512451 712.194519,376.846985 
	C709.574890,379.859894 710.332581,381.866180 712.453918,384.514923 
	C730.860168,407.497528 744.780945,432.960754 754.134277,460.878204 
	C763.248596,488.082031 768.101257,515.978088 767.341431,544.754944 
	C767.176208,551.010254 763.688416,555.655579 760.107788,560.675903 
	C749.979126,561.000000 739.958191,561.000000 729.334229,560.693237 
	C722.325134,553.900391 720.566650,545.967590 720.591064,537.073730 
	C720.626831,524.073547 718.887085,511.190887 716.070312,498.489899 
	C708.150574,462.779510 692.228088,431.108887 667.575806,404.032837 
	C629.574585,362.295319 582.098083,339.574615 525.985535,335.548584 
	C498.866913,333.602875 472.254883,337.534332 446.316467,346.213470 
	C366.705963,372.851501 311.024292,446.381226 306.036926,527.754700 
	C305.322601,539.409424 306.404755,551.660522 297.000000,561.000000 
	C287.312439,561.000000 277.624878,561.000000 267.468658,561.000000 
M560.283997,68.263756 
	C548.414307,62.618767 535.802368,59.340759 522.807190,58.498001 
	C482.761871,55.900997 448.989258,69.359848 423.499420,100.609734 
	C400.127960,129.262512 392.273651,162.320923 400.435089,198.550186 
	C413.872192,258.198761 473.106537,299.400787 537.103882,285.563080 
	C594.668274,273.116333 633.860596,219.719269 627.357422,161.242889 
	C622.594543,118.414871 599.767029,87.528023 560.283997,68.263756 
M812.640076,280.847076 
	C819.827759,281.221313 826.961426,280.813721 833.941162,278.981934 
	C875.703430,268.021759 898.544800,225.622452 884.685669,184.850449 
	C870.656372,143.577774 819.551697,124.004761 781.949768,146.016632 
	C754.469482,162.103455 741.826050,186.339584 745.291504,218.358261 
	C748.904358,251.739243 778.460876,279.463867 812.640076,280.847076 
M270.706268,171.759384 
	C256.268738,147.451508 227.087082,133.531876 199.097122,137.601837 
	C156.099136,143.854111 128.664810,184.612762 139.038010,226.830551 
	C148.290070,264.485382 187.823807,288.406830 226.008606,278.976349 
	C273.926758,267.142059 295.215515,212.887726 270.706268,171.759384 
z"/>
</svg>