<svg version="1.1" id="Layer_1" xmlns="http://www.w3.org/2000/svg" xmlns:xlink="http://www.w3.org/1999/xlink" x="0px" y="0px"
	 width="100%" viewBox="0 0 1024 560" enable-background="new 0 0 1024 560" xml:space="preserve">
<path fill="#FFF" opacity="1.000000" stroke="none" 
	d="
M348.815460,266.960907 
	C347.635040,258.790955 346.533295,251.052917 345.351624,243.327118 
	C344.943634,240.659744 343.841827,238.480469 341.713470,236.498489 
	C321.861359,218.011612 326.928802,184.988693 351.444977,173.146713 
	C354.864044,171.495178 355.943268,169.779907 355.236969,165.853165 
	C352.602234,151.204880 359.302155,137.713928 372.759003,130.281723 
	C375.388611,128.829391 376.131714,127.443520 375.935425,124.488091 
	C374.667084,105.390976 385.350677,88.672279 403.221161,81.667915 
	C406.359192,80.437973 408.644775,79.291473 407.339020,75.286469 
	C402.277802,59.762653 411.015594,41.197773 426.296326,33.123890 
	C442.358215,24.637262 462.106262,27.784792 474.429810,41.073792 
	C476.837036,43.669552 478.853302,44.870827 482.530121,44.044079 
	C485.702057,43.330853 489.262207,43.335762 492.454071,43.986954 
	C496.051758,44.720936 498.107727,43.834297 500.485260,41.047749 
	C511.943848,27.617798 533.709045,25.501299 549.114319,36.298691 
	C552.107300,38.396454 554.524048,39.010731 558.188416,38.092812 
	C578.450439,33.017254 600.587097,47.473820 605.209900,68.967865 
	C606.306519,74.066765 608.635437,76.016075 613.186218,78.516953 
	C621.533264,83.103920 629.932739,80.893532 638.290588,81.602982 
	C664.787354,83.852188 680.784546,111.746048 669.313293,135.744293 
	C668.681030,137.066956 667.698730,138.293076 667.870117,140.304459 
	C671.986450,142.324722 676.623474,143.630569 680.610474,146.426331 
	C700.078613,160.077621 701.754639,187.882156 683.760254,203.459366 
	C681.243103,205.638321 679.987427,207.737656 680.171265,211.085007 
	C680.535828,217.724106 678.148499,223.815567 675.479248,230.143036 
	C681.972290,233.066101 681.561707,238.089020 680.619995,243.994125 
	C674.675964,281.269562 669.094666,318.602661 663.308533,355.903534 
	C657.088928,395.998016 650.733215,436.071442 644.521179,476.167114 
	C641.313599,496.870209 638.248413,517.595703 635.199768,538.322937 
	C633.834534,547.605225 632.122375,549.187683 622.590149,549.188171 
	C549.429504,549.191833 476.268921,549.192932 403.108307,549.185791 
	C393.956390,549.184937 392.358337,547.824524 390.986206,539.016052 
	C386.993622,513.385254 382.982208,487.757477 379.021210,462.121826 
	C373.561920,426.789062 368.166321,391.446411 362.697968,356.115051 
	C358.120117,326.537323 353.476959,296.969727 348.815460,266.960907 
M575.206787,254.398010 
	C572.677856,263.692902 568.665100,272.316406 562.100952,279.378723 
	C558.869385,282.855530 557.702942,286.629089 557.376038,291.033325 
	C555.726379,313.259918 554.046936,335.484314 552.388000,357.710205 
	C550.382263,384.584229 548.382507,411.458679 546.387451,438.333527 
	C544.108887,469.026794 541.861389,499.722412 539.526184,530.411377 
	C539.306519,533.297913 539.931458,534.833984 543.171326,534.797424 
	C552.001343,534.697571 560.833130,534.744873 569.664185,534.753357 
	C571.944092,534.755554 573.391479,534.067261 573.704224,531.443420 
	C575.632263,515.269104 577.678223,499.108948 579.668518,482.942047 
	C582.166626,462.650696 584.631348,442.355194 587.143066,422.065491 
	C589.634460,401.939850 592.179382,381.820831 594.676758,361.695923 
	C597.214783,341.242767 599.712463,320.784607 602.248474,300.331177 
	C604.354492,283.345093 606.486389,266.362183 608.616638,249.379089 
	C608.980835,246.475082 607.914001,244.990219 604.808105,245.016754 
	C596.811035,245.085098 588.813049,245.061661 580.815552,245.032700 
	C577.960266,245.022369 576.563721,246.388184 576.286987,249.204544 
	C576.141846,250.682800 575.664612,252.128448 575.206787,254.398010 
M449.736023,510.945404 
	C450.590881,517.531616 451.581940,524.104309 452.238373,530.710266 
	C452.530579,533.651184 453.733368,534.799500 456.634064,534.773376 
	C465.126831,534.696777 473.621887,534.682068 482.113831,534.801331 
	C485.627960,534.850708 486.800140,533.589783 486.344727,529.994568 
	C485.572296,523.896729 485.204620,517.744568 484.762604,511.608368 
	C483.006104,487.224274 481.358948,462.832153 479.534729,438.453186 
	C477.350861,409.267761 474.960754,380.097778 472.787262,350.911591 
	C471.268005,330.511230 469.968933,310.094452 468.555054,289.686157 
	C468.308472,286.126862 467.159637,283.098907 464.616638,280.307892 
	C456.697449,271.616272 451.741180,261.308380 449.796051,249.726074 
	C449.188690,246.109436 447.616272,244.952713 444.219299,245.003754 
	C436.893311,245.113815 429.560150,245.178238 422.238251,244.969208 
	C417.734192,244.840637 416.833496,246.918213 417.524048,250.841888 
	C418.271576,255.089111 418.758728,259.384430 419.285858,263.667816 
	C421.761871,283.789001 424.188873,303.916290 426.678925,324.035736 
	C429.189484,344.321381 431.798645,364.594910 434.281647,384.883881 
	C436.744629,405.009521 439.069641,425.152008 441.518433,445.279419 
	C444.146484,466.880219 446.848267,488.472076 449.736023,510.945404 
M634.631897,448.278564 
	C639.088623,419.376373 643.503479,390.467621 648.012573,361.573608 
	C653.802368,324.472137 659.658081,287.380920 665.517090,250.290314 
	C666.060852,246.847534 665.308472,244.899551 661.269897,244.950500 
	C650.111023,245.091278 638.948914,245.069092 627.789062,244.987076 
	C624.746704,244.964706 623.310425,246.029892 622.940857,249.198517 
	C621.516235,261.413055 619.846924,273.598816 618.331848,285.803131 
	C614.789612,314.337921 611.293823,342.878448 607.760010,371.414246 
	C604.962219,394.007263 602.125305,416.595428 599.325195,439.188171 
	C596.483459,462.116943 593.650208,485.046753 590.845154,507.980011 
	C589.782654,516.667175 588.809204,525.365112 587.721497,534.689148 
	C598.456970,534.689148 608.566956,534.709167 618.676758,534.672607 
	C620.746216,534.665161 621.423828,533.280762 621.697998,531.402954 
	C622.658325,524.826416 623.713623,518.263672 624.742859,511.697235 
	C628.010742,490.848969 631.283081,470.001373 634.631897,448.278564 
M379.417847,371.194580 
	C383.704346,398.618225 388.001404,426.040253 392.274292,453.466034 
	C396.291534,479.250549 400.294189,505.037384 404.264252,530.829163 
	C404.561005,532.756958 404.822845,534.647156 407.266785,534.660217 
	C417.369934,534.714233 427.473572,534.682861 437.036255,534.682861 
	C438.417542,532.955444 437.969971,531.779602 437.832062,530.655273 
	C435.463562,511.345642 433.058136,492.040497 430.703247,472.729218 
	C427.260529,444.497894 423.900299,416.256470 420.414551,388.030487 
	C416.888641,359.479218 413.232117,330.944092 409.672607,302.396942 
	C407.532593,285.234253 405.362671,268.073883 403.441376,250.886215 
	C402.929504,246.306946 401.080261,244.757141 396.437836,244.918060 
	C385.951477,245.281555 375.444214,245.221207 364.949371,245.065735 
	C361.063263,245.008179 359.906921,246.476578 360.483154,250.135071 
	C366.792786,290.194580 373.057098,330.261230 379.417847,371.194580 
M500.323303,529.205933 
	C499.822266,533.649475 501.938416,535.074036 506.192291,534.836914 
	C511.175323,534.559082 516.186279,534.710510 521.183411,534.786377 
	C523.965576,534.828613 525.471375,533.930115 525.672302,530.846924 
	C526.948364,511.260193 528.322632,491.679657 529.716431,472.100800 
	C530.779541,457.167694 531.905029,442.238983 533.028137,427.310242 
	C534.575317,406.743652 536.150391,386.179199 537.705994,365.613251 
	C538.960449,349.028046 540.409058,332.453613 541.349426,315.850525 
	C541.717407,309.353851 543.322632,302.839417 542.343384,295.562714 
	C522.516479,304.635223 503.165833,304.699127 483.596436,295.647003 
	C483.486298,297.760132 483.280609,299.075684 483.371246,300.370514 
	C484.405029,315.140656 485.445160,329.910583 486.560303,344.674774 
	C488.100891,365.072784 489.753937,385.462341 491.271912,405.862000 
	C492.753418,425.771759 494.087677,445.692505 495.556274,465.603271 
	C497.097748,486.501587 498.721954,507.393860 500.323303,529.205933 
M345.624207,217.676483 
	C348.889832,225.658951 354.620728,230.507156 363.421265,230.598587 
	C380.729004,230.778458 398.039948,230.625931 415.349396,230.678680 
	C417.642944,230.685669 419.590729,230.126648 421.284790,228.589966 
	C427.763519,222.713150 431.348999,215.573441 429.306610,206.786057 
	C428.001434,201.170395 429.987762,198.109833 434.656281,195.436905 
	C444.756531,189.654099 448.554047,177.978165 444.161377,167.398392 
	C440.081177,157.571198 428.494507,152.065140 417.617096,154.784424 
	C409.792847,156.740433 409.243011,156.465408 404.546814,149.694443 
	C399.851898,142.925339 393.365265,139.984741 385.151062,141.134125 
	C377.423248,142.215454 372.502533,146.797531 370.073334,153.976990 
	C368.029510,160.017502 369.301697,165.702438 372.589264,171.135483 
	C376.432495,177.486816 374.175262,182.247147 367.051483,183.358322 
	C348.868927,186.194473 340.450592,199.229309 345.624207,217.676483 
M655.964417,154.314224 
	C648.732910,157.067429 643.844482,155.372467 639.403259,148.359665 
	C633.860474,139.607285 621.796814,138.286240 613.223328,144.086426 
	C604.924255,149.700958 602.639221,161.275269 608.050720,170.287247 
	C612.706665,178.041199 610.728760,182.133240 601.698120,183.514008 
	C592.594543,184.905914 585.344666,188.922897 581.474915,197.783875 
	C580.239929,200.611786 580.542297,202.446060 583.442139,204.335114 
	C591.536194,209.607788 597.054565,217.015717 599.519226,226.426575 
	C600.393555,229.765427 602.052856,230.824020 605.482422,230.780396 
	C619.967957,230.596054 634.457214,230.703842 648.945068,230.702835 
	C657.838562,230.702209 660.417542,228.879974 663.979492,220.674774 
	C666.062866,215.875458 666.390198,210.934692 665.204224,206.017441 
	C664.067932,201.306122 665.783752,198.419250 669.669312,196.071869 
	C680.298889,189.650192 684.208801,180.302231 680.966919,169.488007 
	C677.979553,159.522934 669.007446,153.858398 655.964417,154.314224 
M499.049774,60.327232 
	C492.275696,57.786694 485.374939,57.396828 478.484528,59.598816 
	C473.364532,61.235035 470.048828,59.659672 467.173065,55.183479 
	C459.172394,42.730381 443.831726,39.153751 431.792084,46.619946 
	C422.356354,52.471363 414.978790,66.616821 425.611450,80.826683 
	C429.523682,86.055161 426.601196,91.490334 420.078369,92.296410 
	C419.087738,92.418823 418.081268,92.426712 417.096161,92.578506 
	C400.876770,95.077736 390.050934,106.653084 390.200348,121.070404 
	C390.236359,124.544960 390.981567,126.550369 394.941772,127.141426 
	C399.203949,127.777542 403.984406,128.933853 406.738556,132.135681 
	C412.776825,139.155533 420.271454,140.455536 428.775696,140.166916 
	C430.759216,140.099609 432.275299,140.035156 433.641357,138.575882 
	C438.145020,133.764969 443.555298,130.284790 449.639526,128.044907 
	C450.220978,125.968658 449.496399,124.245651 449.138885,122.477623 
	C444.806458,101.053551 464.445862,80.346642 486.103058,83.431953 
	C494.141388,84.577103 501.148773,87.790970 506.599701,93.817909 
	C508.900940,96.362267 511.333160,97.364700 514.525330,96.520302 
	C517.685120,95.684448 517.427490,92.861038 517.819397,90.452667 
	C518.164490,88.331779 518.424683,86.278282 518.190063,84.046303 
	C516.955261,72.300514 510.157257,65.073112 499.049774,60.327232 
M523.537231,164.937149 
	C521.968750,157.630051 522.496277,156.285843 528.423096,152.487701 
	C538.926758,145.756546 542.600342,135.164215 538.106628,124.566628 
	C533.747192,114.285690 522.790527,109.030495 511.233795,111.677467 
	C503.257233,113.504417 503.257263,113.504402 498.667206,106.708939 
	C492.515900,97.602112 480.944824,94.973457 471.874786,100.622375 
	C463.079651,106.100082 460.515747,117.437462 465.916687,126.968590 
	C470.551514,135.147751 468.648926,138.911667 459.230591,140.559647 
	C454.374756,141.409271 449.522919,142.464706 446.238708,147.241440 
	C453.588196,153.722153 458.381165,161.330841 459.892365,170.771347 
	C460.416016,174.042587 462.823364,173.871185 465.218353,173.710953 
	C472.657562,173.213226 479.922424,174.794785 485.431122,179.481888 
	C491.195618,184.386642 496.593597,188.362305 504.605865,187.058105 
	C506.072510,186.819382 507.871979,187.725235 509.320618,188.480835 
	C511.666229,189.704330 513.302368,189.093323 515.021606,187.295685 
	C520.785217,181.269196 524.566956,174.502548 523.537231,164.937149 
M496.128265,284.500854 
	C512.753174,292.186890 536.096191,287.001160 549.256653,272.657532 
	C557.403442,263.778412 562.245483,253.489944 562.876160,241.287094 
	C563.321289,232.674576 565.630127,230.793594 574.413452,230.672668 
	C577.973511,230.623672 581.627502,231.269257 585.136414,230.110626 
	C582.836365,217.544708 570.787048,210.409027 558.075562,214.106003 
	C552.873596,215.618958 549.533264,214.261749 546.779480,209.729187 
	C540.864014,199.992828 529.443970,196.831238 520.457397,202.192764 
	C510.595428,208.076538 507.875671,218.621780 513.576477,228.872147 
	C518.213501,237.209808 516.378540,240.770493 507.033997,242.520325 
	C496.604004,244.473404 488.838348,249.827423 486.204498,260.747131 
	C483.813629,270.659393 487.340210,278.342163 496.128265,284.500854 
M585.207764,60.321838 
	C576.671204,52.088604 567.102234,48.738430 555.700989,54.097351 
	C551.724182,55.966568 548.201294,55.389400 545.396423,51.960945 
	C540.717529,46.241905 534.376770,43.869057 527.368225,43.660278 
	C521.704224,43.491558 516.229187,44.841011 511.751434,50.643368 
	C512.740845,51.164513 513.540894,51.470432 514.210999,51.955769 
	C529.221497,62.826473 534.886719,77.419617 531.492249,95.578140 
	C531.059814,97.891243 531.872192,99.340157 533.955383,100.408607 
	C540.156372,103.588951 545.279358,108.013130 548.822815,114.079933 
	C550.263977,116.547394 552.148621,116.806427 554.751526,116.214104 
	C557.450562,115.599907 558.415405,114.336990 558.786743,111.527763 
	C560.866882,95.794106 569.612305,85.012871 584.136780,78.952721 
	C592.844238,75.319633 593.500061,73.813637 588.752502,65.399643 
	C587.857361,63.813072 586.706421,62.370770 585.207764,60.321838 
M601.824402,130.411713 
	C603.815369,132.467926 605.683411,131.884995 608.037170,130.691467 
	C621.975891,123.623619 635.731934,125.454590 647.375793,135.679489 
	C648.102173,136.317383 648.684265,137.256470 650.457520,136.923737 
	C657.524475,131.163559 660.213196,123.362053 658.123840,114.148788 
	C654.943604,100.125542 641.725220,92.806801 626.744690,96.812843 
	C622.500305,97.947853 619.147339,97.603317 615.574402,94.984734 
	C609.976929,90.882317 603.451355,89.769409 596.601807,90.338165 
	C586.159241,91.205261 576.060486,99.714523 573.584290,109.757065 
	C572.137024,115.627090 572.877075,116.986565 578.529358,118.855598 
	C586.620483,121.531090 594.425598,124.791603 601.824402,130.411713 
M584.840271,174.171875 
	C587.550232,172.302429 592.677429,172.753006 591.472595,167.141937 
	C589.883301,159.740112 590.570923,152.565521 593.940430,145.741226 
	C594.842041,143.915085 594.560486,142.565186 592.906616,141.453827 
	C582.614197,134.537827 571.521240,130.080551 558.889404,130.135941 
	C555.542175,130.150635 554.338989,131.457672 554.173767,134.889343 
	C553.668030,145.392151 549.078735,154.031174 541.215271,160.950897 
	C540.097107,161.934845 538.393250,162.687759 538.402588,164.275818 
	C538.444580,171.425858 537.086060,178.336380 534.595337,185.238602 
	C543.136902,187.286697 550.044678,190.873611 555.613098,197.091156 
	C559.043884,200.921875 565.807617,199.156097 567.508362,194.313614 
	C570.571411,185.592590 576.239014,179.107834 584.840271,174.171875 
M481.189606,240.702301 
	C484.897003,236.803391 489.064301,233.465515 494.092499,231.513016 
	C497.273193,230.277924 497.710571,228.581482 497.000183,225.394943 
	C495.600464,219.116135 496.324493,212.864914 498.549377,206.778488 
	C499.130646,205.188431 500.668762,203.725998 499.805847,201.780807 
	C499.380280,201.650024 499.058411,201.447128 498.762970,201.480240 
	C497.945190,201.571838 497.127075,201.716965 496.329163,201.919952 
	C488.330170,203.954819 487.620361,203.717056 483.326569,196.910507 
	C481.398621,193.854355 478.723541,191.690643 475.604523,190.017166 
	C467.584259,185.714005 459.683990,187.811005 454.821838,195.422073 
	C453.751984,197.096878 452.728119,199.042908 451.169067,200.120102 
	C445.425415,204.088486 443.546448,209.549774 443.689667,216.249725 
	C443.793060,221.084671 440.561157,225.167755 439.525635,230.086700 
	C444.805786,231.255157 449.784882,230.519897 454.710175,230.690765 
	C459.166809,230.845352 461.947357,232.887436 462.681091,237.341934 
	C463.030762,239.464783 463.081909,241.635086 463.325989,243.777313 
	C464.131134,250.843185 466.241028,257.419922 470.699219,264.288208 
	C472.288055,255.025696 474.940765,247.415207 481.189606,240.702301 
z"/>
</svg>