<svg version="1.1" id="Layer_1" xmlns="http://www.w3.org/2000/svg" xmlns:xlink="http://www.w3.org/1999/xlink" x="0px" y="0px"
	 width="100%" viewBox="0 0 1024 560" enable-background="new 0 0 1024 560" xml:space="preserve">
<path fill="#FFF" opacity="1.000000" stroke="none" 
	d="
M238.468658,561.000000 
	C230.924774,553.966858 228.770660,545.456604 228.788681,535.563293 
	C229.013214,412.247314 228.990692,288.930817 229.037521,165.614471 
	C229.043320,150.367310 236.103333,140.734100 249.244995,138.156799 
	C251.348129,137.744324 253.548218,137.699310 255.703552,137.698456 
	C311.696075,137.676178 367.688568,137.671524 423.681091,137.689896 
	C440.748047,137.695511 450.323334,147.250687 450.348755,164.271896 
	C450.375397,182.102798 450.381012,199.933868 450.333496,217.764694 
	C450.302032,229.577881 441.161469,236.461807 429.832947,233.104156 
	C424.082703,231.399841 418.488556,229.199829 413.357697,226.005707 
	C400.002533,217.691772 387.914124,220.883682 380.463776,234.710419 
	C373.245697,248.106140 378.181824,265.429932 391.404755,272.994141 
	C397.559601,276.515015 403.634186,276.819824 409.734283,272.665924 
	C415.680481,268.616821 422.018494,265.295380 429.017700,263.403900 
	C441.459747,260.041534 450.313354,266.703827 450.338501,279.505188 
	C450.377136,299.169098 450.544922,318.835999 450.244263,338.495300 
	C450.164032,343.740387 451.919098,344.889679 456.824341,344.836243 
	C478.985443,344.594971 501.150665,344.706390 523.314331,344.730713 
	C538.989807,344.747925 545.611206,354.282288 540.440613,369.175629 
	C538.458679,374.884247 535.803101,380.231964 532.442322,385.228973 
	C527.752441,392.202271 528.342773,399.141296 532.885559,405.768158 
	C544.279907,422.389679 568.434021,422.478088 580.054993,406.058868 
	C584.978943,399.101807 585.229431,392.318695 580.693604,385.127991 
	C576.851196,379.036652 573.648071,372.667755 571.663025,365.717834 
	C568.600586,354.996338 574.905579,345.259888 586.018372,344.929382 
	C602.167847,344.449066 618.359070,344.337311 634.500732,344.932404 
	C649.261108,345.476593 658.098999,356.452789 658.110229,372.940643 
	C658.145508,424.767059 658.123047,476.593445 658.123169,528.419861 
	C658.123169,531.252808 658.018311,534.090698 658.146545,536.917847 
	C658.560059,546.035461 656.062683,554.017761 649.133301,560.695801 
	C512.312439,561.000000 375.624878,561.000000 238.468658,561.000000 
M436.703003,286.581726 
	C436.698853,285.082123 436.704285,283.582458 436.688843,282.082977 
	C436.628021,276.181396 435.858490,275.605896 430.291748,277.482086 
	C425.194397,279.200073 420.715027,282.092102 416.184143,284.917816 
	C407.513245,290.325500 398.346497,290.936157 388.925751,287.134949 
	C367.359680,278.433167 357.088959,251.342560 367.267120,230.162949 
	C377.911926,208.012329 399.343018,201.433319 420.383026,213.773010 
	C423.531128,215.619308 426.835144,217.271225 430.223541,218.619949 
	C435.612762,220.765060 436.673523,219.963135 436.685577,214.133301 
	C436.718658,198.135559 436.707275,182.137711 436.696960,166.139908 
	C436.689545,154.719070 433.303741,151.381836 421.734741,151.381500 
	C367.575500,151.379913 313.416290,151.383759 259.257050,151.387497 
	C257.590698,151.387619 255.918915,151.324203 254.258942,151.432495 
	C247.169174,151.895081 243.288467,155.886169 243.285385,162.970139 
	C243.259827,221.795364 243.313004,280.620636 243.200653,339.445648 
	C243.192581,343.671082 244.632736,344.802948 248.683411,344.795929 
	C309.508209,344.690369 370.333313,344.673309 431.158020,344.799438 
	C435.631012,344.808716 436.834198,343.356873 436.782867,339.049103 
	C436.578339,321.887238 436.701904,304.721497 436.703003,286.581726 
M596.810059,387.075043 
	C597.607727,390.812103 598.460388,394.480072 597.783447,398.413391 
	C592.880554,426.898285 559.249207,441.413330 534.258606,425.751801 
	C517.628540,415.329742 508.308960,394.884338 521.957886,375.593933 
	C524.639709,371.803711 526.570740,367.511292 527.834900,362.958527 
	C528.615417,360.147461 527.580566,358.794098 524.852661,358.544708 
	C523.363464,358.408569 521.849304,358.351715 520.359009,358.450470 
	C498.882996,359.873627 477.391571,357.608490 455.900330,358.726379 
	C451.600250,358.950043 450.223206,359.750397 450.234100,364.245972 
	C450.380615,424.743286 450.387787,485.241211 450.240753,545.738525 
	C450.229065,550.546448 451.617279,551.997192 456.423584,551.985901 
	C514.587646,551.849121 572.752197,551.914917 630.916626,551.886536 
	C640.470276,551.881897 643.882629,548.453796 643.886536,538.936340 
	C643.909363,483.438507 643.908203,427.940643 643.882812,372.442810 
	C643.878052,362.059662 640.200684,358.671539 629.683167,358.380859 
	C617.022278,358.030823 604.380615,359.359650 591.712097,358.500610 
	C584.601501,358.018433 583.954285,359.368073 586.440918,366.279663 
	C588.997131,373.384735 594.401306,379.017944 596.810059,387.075043 
M436.677917,381.500153 
	C436.675659,375.502533 436.403473,369.488708 436.763000,363.512848 
	C437.016693,359.296295 435.142639,358.266205 431.510254,358.456207 
	C428.691071,358.603699 425.857147,358.670837 423.037201,358.568634 
	C406.222504,357.959167 389.406586,359.579437 372.589081,358.480865 
	C368.567871,358.218231 367.755615,360.392822 369.000854,363.957825 
	C370.883484,369.347656 373.689667,374.238312 376.596588,379.106720 
	C380.665955,385.921997 382.493805,393.179413 380.562439,401.109406 
	C376.620056,417.296539 362.867249,429.289886 345.081543,432.015442 
	C330.216797,434.293335 312.289825,425.917419 304.222595,412.893066 
	C296.975677,401.193054 296.458282,389.447601 304.077271,377.678345 
	C306.711151,373.609711 308.958862,369.346344 310.575806,364.767303 
	C312.404846,359.587524 311.665833,358.254425 306.234558,358.483948 
	C287.081146,359.293304 267.923767,358.761627 248.769775,358.812927 
	C244.354889,358.824768 243.076080,360.456512 243.083466,364.720276 
	C243.184860,423.198639 243.131546,481.677277 243.170944,540.155823 
	C243.176300,548.120422 246.797791,551.849609 254.746262,551.857178 
	C313.724579,551.913696 372.703033,551.862305 431.681335,551.930176 
	C435.232941,551.934265 436.760376,550.945923 436.729401,547.123291 
	C436.583679,529.131042 436.690247,511.136871 436.640411,493.143616 
	C436.626678,488.192627 435.357452,487.379761 430.441101,488.934082 
	C425.305542,490.557648 420.807037,493.413361 416.286652,496.257629 
	C410.020020,500.200592 403.281219,502.063110 395.809052,500.594360 
	C369.053497,495.335114 354.801636,463.437714 368.232880,439.334625 
	C377.554626,422.606232 398.978790,410.478455 419.814911,425.087921 
	C422.778961,427.166229 426.254303,428.586395 429.623444,430.000397 
	C435.681793,432.543030 436.632446,431.896515 436.651825,425.484344 
	C436.695129,411.156372 436.672638,396.828217 436.677917,381.500153 
M323.899902,369.117798 
	C321.749176,374.910889 319.012268,380.406799 315.576965,385.549530 
	C311.701447,391.351196 311.393677,397.276611 314.832489,403.410889 
	C324.087402,419.920197 347.036255,424.605103 361.653900,408.213623 
	C368.947449,400.034973 369.079498,393.224335 363.157104,383.741272 
	C360.680786,379.776123 358.906250,375.465729 356.765106,371.347015 
	C354.685516,367.346741 356.448639,361.025238 351.394531,359.296356 
	C347.170319,357.851379 342.183380,358.503906 337.532288,358.465851 
	C326.994965,358.379639 326.994476,358.439423 323.899902,369.117798 
M403.702637,432.646057 
	C399.770142,431.775085 396.032501,432.525238 392.573395,434.365417 
	C382.394226,439.780609 377.154449,448.311310 377.187775,459.864441 
	C377.221252,471.476837 382.746124,479.923828 392.951935,485.106781 
	C398.450195,487.898987 404.146545,487.879333 409.533386,484.170044 
	C413.652008,481.334015 418.216064,479.263916 422.613312,476.903992 
	C427.082153,474.505646 434.202423,476.339417 436.155884,471.331238 
	C437.966980,466.688232 436.659271,460.817352 436.672943,455.487030 
	C436.695190,446.810394 436.676544,446.812866 428.804962,444.316223 
	C427.535156,443.913452 426.283539,443.452545 425.010620,443.060425 
	C417.610382,440.780853 411.562073,435.770752 403.702637,432.646057 
z"/>
<path fill="#FFF" opacity="1.000000" stroke="none" 
	d="
M773.666016,191.690247 
	C763.363586,200.431595 753.393738,209.016098 743.280273,217.427856 
	C739.870789,220.263626 739.873474,222.267212 743.794556,224.477829 
	C747.439514,226.532700 751.105713,228.651459 755.149170,229.593018 
	C777.162231,234.718918 783.422546,254.903687 778.903015,273.232117 
	C772.824951,297.880676 745.076233,311.767639 721.706177,301.825348 
	C710.460815,297.041229 704.149902,288.441742 702.741211,276.316650 
	C702.140930,271.149872 700.840393,266.194916 698.954041,261.362518 
	C697.613525,257.928528 695.780273,257.527954 692.958557,259.921051 
	C675.686646,274.569305 658.366455,289.160583 641.062988,303.771729 
	C639.790588,304.846191 638.554626,305.966339 637.249023,306.998535 
	C631.348572,311.663452 628.795776,311.450256 623.839966,305.630676 
	C610.231079,289.649536 596.684143,273.615540 583.091003,257.620941 
	C579.481628,253.373932 578.359131,253.484085 575.573608,258.311859 
	C573.321411,262.215363 571.499451,266.302979 570.157776,270.628967 
	C564.875610,287.660400 551.304688,296.340912 533.452209,294.208221 
	C512.567322,291.713226 496.898315,275.885925 495.406982,254.884415 
	C494.097137,236.439163 503.303711,218.639069 525.303711,216.575211 
	C531.204407,216.021667 537.029541,214.540329 542.053528,211.212631 
	C542.034607,208.602448 540.300171,207.345978 539.060486,205.876144 
	C524.238770,188.302872 509.384796,170.756775 494.519775,153.220108 
	C488.036682,145.571838 488.157166,143.295944 495.780029,136.849731 
	C542.840210,97.053955 589.900574,57.258293 636.997742,17.506279 
	C647.894043,8.309342 662.701477,9.528165 672.192200,20.642017 
	C695.232239,47.622643 718.093567,74.755867 741.027771,101.826874 
	C758.255310,122.161842 775.519409,142.466034 792.690735,162.848358 
	C797.744385,168.847000 797.352295,171.667709 791.469360,176.600967 
	C785.599609,181.523239 779.782654,186.508362 773.666016,191.690247 
M776.027527,171.523132 
	C780.209045,169.043259 777.903748,166.818832 775.855530,164.406082 
	C738.117371,119.950607 700.413696,75.465752 662.679565,31.006847 
	C656.640930,23.892036 651.430237,23.535685 644.310608,29.557774 
	C600.566772,66.558220 556.826904,103.563278 513.069824,140.548019 
	C506.490204,146.109268 505.543884,144.543564 512.321533,152.600067 
	C525.404907,168.152023 538.618408,183.594772 551.665771,199.176773 
	C559.802979,208.894760 557.137695,220.154007 545.596924,225.309967 
	C539.636780,227.972733 533.393921,229.625031 526.888062,230.419327 
	C516.962158,231.631180 511.176788,236.825485 509.604645,246.315002 
	C508.057770,255.652084 510.065857,264.209534 516.549255,271.414520 
	C527.857300,283.981110 554.009155,286.013306 558.109863,263.517242 
	C559.226074,257.393860 562.859131,251.831772 566.604980,246.654297 
	C568.857727,243.540543 571.820251,241.576157 575.527649,240.677460 
	C582.780701,238.919235 588.130127,242.049698 592.620850,247.350891 
	C604.466736,261.334625 616.366211,275.273834 628.097595,289.353088 
	C630.629333,292.391602 632.635132,293.131805 635.736816,290.140198 
	C639.086243,286.909698 642.816040,284.073364 646.381897,281.067444 
	C659.372925,270.116180 672.306641,259.096039 685.375610,248.238678 
	C694.834717,240.380356 705.670654,242.916412 710.783691,254.090240 
	C713.709106,260.483307 715.620361,267.199677 716.308105,274.220825 
	C717.004333,281.329620 720.528748,286.181549 727.163879,289.082794 
	C745.159607,296.951416 767.538269,281.558350 766.618652,261.821167 
	C766.147217,251.702438 761.981689,246.232498 752.328613,243.179749 
	C746.423828,241.312393 740.817932,238.843613 735.534424,235.580307 
	C723.530884,228.166519 722.688171,216.443115 733.470337,207.424255 
	C747.526550,195.666763 761.495239,183.804626 776.027527,171.523132 
z"/>
</svg>