<svg version="1.1" id="Layer_1" xmlns="http://www.w3.org/2000/svg" xmlns:xlink="http://www.w3.org/1999/xlink" x="0px" y="0px"
	 width="100%" viewBox="0 0 1024 560" enable-background="new 0 0 1024 560" xml:space="preserve">
<path fill="#FFF" opacity="1.000000" stroke="none" 
	d="
M583.468628,561.000000 
	C556.908752,544.446289 538.196106,519.949768 516.553955,498.676544 
	C475.082550,457.911896 434.499756,416.242981 393.564178,374.933411 
	C365.179260,346.289215 336.820435,317.619141 308.451447,288.959106 
	C303.828918,284.289124 303.809723,284.261963 308.581116,279.638153 
	C387.793243,202.875839 467.009064,126.117310 546.232849,49.367046 
	C552.934570,42.874599 559.901184,36.643093 566.393982,29.950056 
	C581.967712,13.896036 600.660828,9.421074 621.288452,16.768274 
	C651.123413,27.394958 671.287720,48.080261 679.531189,79.048157 
	C684.272766,96.860466 679.786133,112.806129 666.172058,125.538734 
	C636.361877,153.418655 606.380615,181.115723 576.457397,208.874619 
	C556.427856,227.455399 536.373657,246.009537 516.339783,264.585632 
	C510.720337,269.796204 505.270996,275.200836 499.479279,280.210876 
	C496.157349,283.084442 496.083069,284.929169 499.352234,288.104736 
	C543.695862,331.179169 587.902527,374.394531 632.150024,417.567932 
	C641.571350,426.760559 651.195435,435.752747 660.421875,445.136383 
	C683.879517,468.993835 685.736328,499.539368 665.832214,527.207214 
	C654.698914,542.683105 640.169678,553.605530 622.260620,560.773193 
	C609.312439,561.000000 596.624878,561.000000 583.468628,561.000000 
z"/>
</svg>