<svg version="1.1" id="seat" xmlns="http://www.w3.org/2000/svg" xmlns:xlink="http://www.w3.org/1999/xlink" x="0px" y="0px"
	 width="100%" viewBox="100 0 768 768" xml:space="preserve">
<path fill="#FFF" opacity="1.000000" stroke="none" 
	d="
	M626.455200,402.533234 
	C609.423401,390.413055 590.536133,385.543793 570.251038,385.526123 
	C513.251526,385.476471 456.252075,385.486298 399.252594,385.518890 
	C376.017120,385.532166 355.003540,392.076752 336.933075,407.081848 
	C336.051910,407.813568 335.084717,408.441742 333.590851,409.531586 
	C333.428375,407.863281 333.214996,406.676331 333.212280,405.488953 
	C333.186401,394.155792 333.363525,382.818604 333.100098,371.491516 
	C333.014130,367.794952 334.125916,366.030365 337.544403,364.438354 
	C363.244232,352.470123 372.846466,321.669098 358.341583,297.311920 
	C349.643982,282.706482 336.457520,274.855408 319.399994,273.967743 
	C313.608063,273.666321 307.787292,273.919922 301.615112,273.919922 
	C301.500885,272.083313 301.332703,270.638184 301.332428,269.193054 
	C301.321808,212.693573 301.278168,156.194016 301.351959,99.694626 
	C301.383545,75.513512 315.935242,57.127060 339.195618,51.731312 
	C342.231262,51.027126 345.465088,50.964359 348.607239,50.963066 
	C439.439758,50.925644 530.273071,51.140472 621.104187,50.779308 
	C641.942566,50.696449 666.423340,67.515808 667.977600,96.010201 
	C668.086426,98.005470 668.086182,100.008324 668.086426,102.007652 
	C668.092896,157.340485 668.092712,212.673325 668.093689,268.006165 
	C668.093750,269.797119 668.093689,271.588074 668.093689,273.896667 
	C662.040710,273.896667 656.415955,273.769104 650.798584,273.919861 
	C631.415894,274.439911 614.278992,286.626587 607.434753,304.638519 
	C600.555481,322.742645 605.190063,343.004303 619.749146,356.250946 
	C623.616882,359.770081 628.403931,362.349274 632.987610,364.978943 
	C635.022705,366.146515 636.290710,366.978088 636.256653,369.665588 
	C636.092041,382.659119 636.182434,395.655914 636.182434,409.608673 
	C632.676636,407.066803 629.706665,404.913452 626.455200,402.533234 
z"/>
<path fill="#FFF" opacity="1.000000" stroke="none" 
	d="
	M526.000000,545.000671 
	C467.854401,545.000671 410.208771,545.002808 352.563171,544.999084 
	C339.115631,544.998169 333.153625,539.033630 333.217712,525.423462 
	C333.296875,508.602570 332.533325,491.703888 333.875031,474.978485 
	C336.461578,442.735107 362.944519,418.257751 395.299103,417.304779 
	C411.113251,416.839020 426.951233,417.169189 442.778442,417.165985 
	C485.262909,417.157410 527.747437,417.126160 570.231873,417.175201 
	C604.120911,417.214294 629.959656,438.739166 635.423279,472.003204 
	C636.652588,479.487457 636.087402,487.283203 636.157043,494.937286 
	C636.257019,505.932343 636.265503,516.929871 636.156921,527.924744 
	C636.051758,538.573425 629.583984,544.973816 618.966125,544.987061 
	C588.144165,545.025330 557.322021,545.000671 526.000000,545.000671 
z"/>
<path fill="#FFF" opacity="1.000000" stroke="none" 
	d="
	M301.365845,392.000549 
	C301.365845,501.447906 301.365845,610.395325 301.365845,719.675232 
	C290.750275,719.675232 280.369049,719.675232 269.730896,719.675232 
	C269.730896,603.169556 269.730896,486.622925 269.730896,369.776825 
	C280.162445,369.776825 290.419830,369.776825 301.365875,369.776825 
	C301.365875,376.965607 301.365875,384.233093 301.365845,392.000549 
z"/>
<path fill="#FFF" opacity="1.000000" stroke="none" 
	d="
	M700.038513,477.000000 
	C700.038513,558.109924 700.038513,638.719910 700.038513,719.666199 
	C689.534119,719.666199 679.134094,719.666199 668.410461,719.666199 
	C668.410461,603.289124 668.410461,486.777466 668.410461,369.876831 
	C678.651794,369.876831 689.034424,369.876831 700.038513,369.876831 
	C700.038513,405.367523 700.038513,440.933746 700.038513,477.000000 
z"/>

<path fill="#FFF" opacity="1.000000" stroke="none" 
	d="
	M277.999695,337.520233 
	C268.844666,337.427765 260.167297,337.684967 251.541458,337.134857 
	C244.334274,336.675201 238.507950,330.536530 237.995834,324.011383 
	C237.289444,315.010773 241.321854,308.636047 249.235855,306.418182 
	C250.656738,306.019958 252.188766,305.860565 253.669830,305.858490 
	C274.986359,305.828766 296.303436,305.765442 317.619324,305.891724 
	C325.395203,305.937805 331.867615,311.670349 332.996918,318.949738 
	C334.175934,326.549225 330.061615,333.918152 322.814178,336.398560 
	C320.210510,337.289642 317.265106,337.446350 314.471375,337.472137 
	C302.481689,337.582794 290.490417,337.519867 277.999695,337.520233 
z"/>
<path fill="#FFF" opacity="1.000000" stroke="none" 
	d="
	M643.574524,308.320190 
	C647.072876,307.353302 650.242432,305.957550 653.425354,305.926331 
	C673.889648,305.725739 694.356934,305.778870 714.822998,305.843628 
	C724.668091,305.874817 731.820251,312.485413 731.958801,321.436859 
	C732.096252,330.316589 724.983765,337.378418 715.168823,337.460419 
	C694.537659,337.632812 673.903687,337.584747 653.271667,337.481567 
	C645.525879,337.442841 639.444458,333.291290 637.216064,327.045166 
	C634.808044,320.295288 636.823853,314.109131 643.574524,308.320190 
z"/>
</svg>