<svg version="1.1" id="Layer_1" xmlns="http://www.w3.org/2000/svg" xmlns:xlink="http://www.w3.org/1999/xlink" x="0px" y="0px"
	 width="100%" viewBox="0 0 1024 560" enable-background="new 0 0 1024 560" xml:space="preserve">
<path fill="#fff" opacity="1.000000" stroke="none" 
	d="
M490.000000,547.916504 
	C406.339661,547.919800 323.179321,547.924072 240.018997,547.925964 
	C232.671875,547.926147 232.658768,547.919067 232.652588,540.382202 
	C232.641922,527.383179 232.577026,514.383545 232.697662,501.385651 
	C232.729675,497.936096 231.938354,494.881378 230.402466,491.826080 
	C214.167236,459.530060 198.044861,427.177185 181.756592,394.908081 
	C179.587570,390.610931 178.494766,386.347595 178.653549,381.525238 
	C178.905716,373.867523 178.901611,366.188995 178.640747,358.531708 
	C178.498566,354.358063 180.057236,352.631042 184.126938,353.079529 
	C188.495453,353.560913 190.109680,351.681244 189.711960,347.302582 
	C189.097580,340.539062 191.605026,334.580170 195.121872,328.949493 
	C213.920197,298.852386 232.664108,268.721222 251.522766,238.662018 
	C253.320404,235.796707 253.921371,232.949905 253.614517,229.675964 
	C250.354095,194.889557 247.092987,160.103027 243.960281,125.305008 
	C243.513397,120.341019 243.487106,115.303635 243.717911,110.321152 
	C244.291702,97.934975 256.693115,85.532990 269.135376,84.726585 
	C274.647827,84.369316 279.990906,84.880447 285.354401,86.711441 
	C309.150085,94.834824 333.037750,102.689201 356.906738,110.596703 
	C358.114136,110.996704 359.340454,111.796478 360.841919,111.155579 
	C362.296936,109.692703 361.679993,107.755028 361.686890,106.014099 
	C361.742279,92.015388 361.710175,78.016342 361.720581,64.017418 
	C361.740112,37.717758 384.556183,23.262157 408.398743,34.628632 
	C439.377045,49.396931 470.254395,64.376961 501.173157,79.270103 
	C513.479614,85.197945 525.756775,91.186958 538.091003,97.056389 
	C549.243347,102.363419 556.100403,110.756798 556.499084,123.376999 
	C556.882996,135.528549 551.031555,144.215652 540.613525,150.234055 
	C532.394165,154.982346 524.384338,160.094101 516.294739,165.066177 
	C514.044678,166.449142 511.842163,167.909424 508.581390,169.998154 
	C519.527588,178.766495 529.924377,187.094742 540.697571,195.724518 
	C544.642212,190.143478 549.275330,186.181519 555.076294,183.762436 
	C568.170471,178.302048 582.923767,181.453751 592.471924,192.231659 
	C612.359009,214.680176 632.039917,237.311356 651.812195,259.861603 
	C653.208557,261.454193 654.366821,263.332642 656.672302,264.298767 
	C667.435303,250.806259 661.594238,234.727325 663.476013,220.333038 
	C665.646851,219.235703 666.966064,220.226257 668.303955,220.759903 
	C688.105835,228.658417 708.079529,236.160950 727.648987,244.600098 
	C764.331055,260.418823 785.823364,288.394836 792.302490,327.832153 
	C792.781738,330.749725 793.325195,333.123840 796.675354,334.302368 
	C819.807129,342.439484 832.554810,368.699829 822.170288,392.577698 
	C821.786011,393.461212 821.575073,394.420074 821.144653,395.782928 
	C827.228027,396.839813 833.015015,395.928925 838.754395,396.063202 
	C847.340210,396.264099 847.212219,396.149353 847.357422,404.471069 
	C847.872192,433.966949 837.284363,458.757172 815.874878,478.936890 
	C807.553345,486.780457 798.041016,492.918365 787.409607,497.145111 
	C784.071106,498.472412 782.894165,500.396118 782.937378,503.893372 
	C783.087769,516.057190 782.999695,528.223999 782.992432,540.389709 
	C782.988037,547.811279 782.886292,547.911316 775.476807,547.911499 
	C680.484558,547.914368 585.492249,547.915222 490.000000,547.916504 
M276.500000,376.027191 
	C253.503784,376.027985 230.507568,376.023376 207.511353,376.033173 
	C201.426178,376.035767 199.837112,378.230469 201.764572,384.031738 
	C202.181198,385.285675 202.882401,386.447693 203.478531,387.639038 
	C218.238663,417.136047 233.088745,446.588684 247.670105,476.173798 
	C249.807343,480.510193 252.318710,482.092285 257.193024,482.085846 
	C362.009399,481.947174 466.825958,481.985565 571.642517,481.958740 
	C573.571106,481.958252 575.598938,482.423981 577.547485,481.329376 
	C576.995300,479.192902 575.185364,478.143372 573.839661,476.787628 
	C554.577881,457.381256 545.117554,433.908813 544.749023,406.687469 
	C544.606079,396.130463 544.700806,396.301270 555.303162,396.029877 
	C560.371887,395.900116 565.535950,397.571533 571.103088,395.437317 
	C570.327759,393.282440 569.541382,391.316467 568.916870,389.300385 
	C568.278259,387.238770 567.717346,385.145416 567.263672,383.035583 
	C565.764709,376.063965 565.789246,376.045776 558.455017,376.045105 
	C464.803345,376.036591 371.151672,376.032074 276.500000,376.027191 
M664.398071,396.571289 
	C703.046570,395.793701 741.696045,396.069519 780.347351,396.325348 
	C788.795227,396.381256 795.988464,393.314240 800.455078,385.527191 
	C804.483398,378.504547 804.110779,371.476288 800.162415,364.672394 
	C795.798401,357.152161 788.773010,354.343262 780.371399,354.341309 
	C761.209290,354.336823 742.045715,354.188568 722.886108,354.401825 
	C718.174744,354.454254 716.616760,352.731873 716.905273,348.285095 
	C717.142151,344.634247 717.135132,340.947266 716.930908,337.293365 
	C716.686096,332.912415 718.556396,331.565125 722.847534,331.630035 
	C737.007629,331.844147 751.173401,331.644501 765.335876,331.754059 
	C768.922302,331.781830 770.118652,330.607880 769.333740,326.985657 
	C765.869141,310.997467 758.876831,296.951538 747.610840,284.930908 
	C730.986328,267.192841 708.181946,261.439056 686.778625,252.920074 
	C686.541382,252.825653 686.168945,253.070755 685.850952,253.159637 
	C685.684143,253.439102 685.445984,253.698868 685.362488,254.001343 
	C684.919922,255.604706 684.527832,257.221954 684.097229,258.828766 
	C679.789429,274.903198 670.543030,287.181854 656.054138,295.489227 
	C652.270142,297.658813 648.234009,299.180420 644.182556,300.709595 
	C631.790588,305.386871 621.457275,318.735168 622.237549,331.127930 
	C623.926941,332.085266 625.801147,331.666168 627.591064,331.671814 
	C641.754272,331.716553 655.918579,331.793518 670.080322,331.645477 
	C673.962952,331.604919 675.546753,332.971466 675.329895,336.877594 
	C675.117676,340.698334 675.055237,344.556305 675.334717,348.368011 
	C675.666077,352.887665 674.040466,354.476013 669.382019,354.419800 
	C650.889099,354.196686 632.391785,354.300018 613.896423,354.364502 
	C611.082336,354.374329 608.216187,354.551086 605.465698,355.105316 
	C592.873169,357.642761 585.687256,370.988190 590.549866,382.860718 
	C594.727173,393.060089 603.229126,396.457153 613.434570,396.538025 
	C630.096191,396.670105 646.759644,396.571930 664.398071,396.571289 
M570.369934,428.164703 
	C579.332336,458.932861 608.617737,482.824371 644.232727,482.138947 
	C679.695312,481.456421 715.181335,482.049438 750.656860,481.967987 
	C784.579834,481.890137 813.912109,458.992310 822.408264,426.133606 
	C824.214600,419.147705 824.214600,419.130676 817.131775,419.130615 
	C736.353821,419.130188 655.575867,419.130737 574.797913,419.166718 
	C572.883362,419.167572 570.801270,418.589386 568.999939,420.103851 
	C568.838257,422.624695 569.375305,425.028381 570.369934,428.164703 
M486.301086,156.746323 
	C500.537506,148.087753 514.807617,139.483948 528.995911,130.747192 
	C535.920959,126.483002 535.757996,121.227745 528.522766,117.730484 
	C485.175751,96.778152 441.802917,75.879051 398.395935,55.051338 
	C389.888885,50.969448 384.345001,54.629021 384.340607,64.109268 
	C384.319061,110.773811 384.324707,157.438385 384.349762,204.102936 
	C384.354187,212.363022 389.849854,215.525085 396.903046,211.238388 
	C426.518616,193.239136 456.090942,175.168747 486.301086,156.746323 
M349.500000,353.048462 
	C358.327362,353.043610 367.158051,353.184875 375.980896,352.982849 
	C381.911652,352.847046 384.518707,348.395782 382.132660,342.962799 
	C381.601196,341.752625 380.830566,340.642731 380.126617,339.513733 
	C355.546265,300.093597 330.951935,260.682190 306.382782,221.255051 
	C300.998810,212.615158 294.499573,212.521210 289.194946,221.047119 
	C273.362854,246.493256 257.515350,271.929810 241.673508,297.369873 
	C232.431854,312.210846 223.103973,326.999115 213.988586,341.917267 
	C210.215775,348.091827 212.920471,352.739594 220.086182,352.980591 
	C221.417252,353.025330 222.750839,352.999146 224.083267,352.999695 
	C265.555511,353.016357 307.027771,353.032288 349.500000,353.048462 
M585.272949,339.674652 
	C588.357239,338.042084 591.323853,336.099854 594.560852,334.868805 
	C597.476501,333.759949 598.473083,332.169891 598.836548,329.065094 
	C601.237427,308.558014 611.118713,292.816833 629.211304,282.441437 
	C631.753052,280.983826 634.885193,280.573303 637.132202,278.208618 
	C636.721436,277.488861 636.486938,276.857300 636.072327,276.383270 
	C616.115234,253.567490 596.235962,230.682465 576.112671,208.014069 
	C570.376038,201.551880 563.140015,202.676025 558.341248,210.306519 
	C545.132263,231.309998 531.997925,252.360504 518.872009,273.416016 
	C518.031067,274.765015 516.631409,275.979156 517.208923,278.294281 
	C524.708191,283.310822 532.444275,288.489288 540.183960,293.662476 
	C559.575317,306.623596 562.244141,330.620422 546.206299,347.501251 
	C544.801941,348.979462 542.838135,350.116028 542.170593,353.017944 
	C551.067383,353.017944 559.531067,352.914062 567.989929,353.071808 
	C571.141113,353.130554 573.307861,352.137085 575.095703,349.499298 
	C577.636047,345.751251 581.064453,342.795410 585.272949,339.674652 
M597.463013,525.612488 
	C609.600403,525.618958 609.600403,525.618958 609.619873,513.434814 
	C609.620117,513.268250 609.620361,513.101624 609.620605,512.935059 
	C609.632019,505.017914 609.632080,505.022675 601.793884,505.023346 
	C490.680084,505.032471 379.566284,505.041534 268.452484,505.046478 
	C255.263580,505.047058 255.263596,505.035706 255.283264,518.148804 
	C255.294388,525.571533 255.294373,525.576233 262.634125,525.577026 
	C373.914520,525.589233 485.194885,525.600098 597.463013,525.612488 
M361.710266,180.500000 
	C361.711884,167.513382 361.552673,154.523590 361.807465,141.541946 
	C361.890076,137.330780 360.492096,135.426407 356.456726,134.112610 
	C330.671265,125.717598 304.977814,117.040085 279.245880,108.480194 
	C269.789124,105.334358 265.943329,108.153900 266.254791,117.940544 
	C266.307709,119.602882 266.394440,121.266716 266.541626,122.923103 
	C268.468201,144.603073 270.397430,166.282822 272.354065,187.960098 
	C272.778931,192.667297 273.314423,197.364532 273.862732,202.685226 
	C275.382507,201.498108 276.304535,200.830139 277.169189,200.094711 
	C292.433868,187.111710 312.224152,189.663406 323.533356,206.179352 
	C326.634705,210.708557 329.345093,215.503372 332.355377,220.097366 
	C341.187744,233.576324 336.560852,231.870392 351.769409,227.031693 
	C356.399506,225.558594 361.319336,224.603653 365.613800,221.839584 
	C362.595917,215.381134 361.442291,209.101486 361.650513,202.476929 
	C361.870117,195.490921 361.705627,188.492813 361.710266,180.500000 
M372.713440,284.820740 
	C382.128662,299.947968 391.575165,315.055847 400.943237,330.212250 
	C404.528900,336.013428 406.331970,342.323608 405.604523,349.208466 
	C405.460327,350.573212 405.270081,351.822845 406.780334,352.651459 
	C411.349365,355.158356 417.610901,352.427551 418.538727,347.394226 
	C423.236267,321.909882 428.086731,296.451416 432.478180,270.914154 
	C434.302795,260.303436 437.497498,249.836273 436.858124,238.876785 
	C436.415161,231.284088 431.143402,226.687088 423.563477,227.356979 
	C422.090363,227.487152 420.607697,227.857666 419.200134,228.328613 
	C401.207672,234.348785 383.207977,240.348633 365.260223,246.499954 
	C361.072540,247.935211 356.573212,248.634277 352.007965,251.499466 
	C358.869110,262.534119 365.603516,273.364929 372.713440,284.820740 
M501.428925,295.112244 
	C486.684509,285.287231 471.940094,275.462219 456.525208,265.190399 
	C451.136597,294.855957 445.929077,323.524597 440.671814,352.466919 
	C442.557312,352.737823 443.515533,352.993927 444.474213,352.995758 
	C464.621643,353.034729 484.769226,353.016846 504.916443,353.093903 
	C507.656952,353.104370 509.653687,351.999725 511.494965,350.133575 
	C517.458679,344.089050 523.548523,338.167999 529.466858,332.079895 
	C536.280823,325.070557 535.538208,318.074524 527.345581,312.455566 
	C518.971741,306.712341 510.474976,301.148499 501.428925,295.112244 
M520.844299,227.386185 
	C522.619995,224.569687 524.258240,221.653427 526.209778,218.964523 
	C528.194824,216.229462 527.807373,214.320572 525.161194,212.245819 
	C513.894592,203.412079 502.686218,194.501984 491.567413,185.483170 
	C488.819702,183.254425 486.599640,183.133759 483.552765,185.044388 
	C471.707245,192.472473 459.698456,199.639984 447.764587,206.927628 
	C446.541229,207.674698 444.936646,208.103256 444.719666,210.010147 
	C444.981201,210.367157 445.198303,210.840897 445.561432,211.133179 
	C453.877350,217.826050 459.019928,226.202682 459.389618,237.115997 
	C459.473938,239.604660 461.083405,240.905792 462.965729,242.147430 
	C471.164520,247.555542 479.296936,253.064438 487.506470,258.455994 
	C490.649475,260.520172 493.525513,263.083008 497.592377,264.432129 
	C505.262299,252.210983 512.860229,240.104553 520.844299,227.386185 
M714.500000,505.028168 
	C688.385437,504.676270 662.259094,505.798462 636.153992,504.412445 
	C633.439880,504.268341 632.110474,505.212250 632.174805,508.065277 
	C632.264771,512.056702 632.431946,516.071167 632.118042,520.040344 
	C631.767883,524.467896 633.469238,525.737915 637.825989,525.691223 
	C657.126709,525.484375 676.431030,525.601196 695.734009,525.601685 
	C715.369812,525.602234 735.005981,525.535339 754.640991,525.663818 
	C758.462158,525.688843 760.174683,524.449463 759.989624,520.506470 
	C759.802612,516.521851 759.855225,512.517700 759.992249,508.528656 
	C760.107422,505.174927 758.519775,504.106079 755.403992,504.399719 
	C742.120911,505.651550 728.800476,504.741760 714.500000,505.028168 
z"/>
<path fill="#fff" opacity="1.000000" stroke="none" 
	d="
M457.056458,150.126022 
	C455.070984,150.112366 453.571869,150.056122 452.075378,150.096680 
	C449.185181,150.174957 447.766052,148.868301 447.800110,145.916016 
	C447.855835,141.089691 447.875214,136.261688 447.810211,131.435745 
	C447.774872,128.811707 448.828033,127.269089 451.538086,127.232338 
	C456.529205,127.164642 461.521454,127.155457 466.513184,127.160706 
	C469.514893,127.163864 470.486298,128.856750 470.413330,131.677628 
	C470.297211,136.168716 470.222351,140.672653 470.434692,145.156738 
	C470.607880,148.814285 469.208984,150.384186 465.531677,150.161911 
	C462.878113,150.001526 460.207184,150.128403 457.056458,150.126022 
z"/>
<path fill="#fff" opacity="1.000000" stroke="none" 
	d="
M404.808655,103.679817 
	C404.785248,98.384590 404.868988,93.555977 404.769897,88.731117 
	C404.708405,85.735565 406.028656,84.543625 408.960846,84.602615 
	C413.619385,84.696335 418.284576,84.728142 422.940643,84.583199 
	C426.086273,84.485268 427.497406,85.612465 427.372681,88.904213 
	C427.196381,93.558357 427.226685,98.226227 427.347412,102.883598 
	C427.424896,105.871712 426.148346,107.122253 423.214478,107.081917 
	C418.388519,107.015572 413.560760,107.093384 408.734039,107.063438 
	C406.761688,107.051208 405.062714,106.553505 404.808655,103.679817 
z"/>
<path fill="#fff" opacity="1.000000" stroke="none" 
	d="
M269.855469,333.006165 
	C265.711212,332.999756 262.045135,332.963013 258.379578,332.994049 
	C255.252808,333.020538 253.832321,331.532776 253.882217,328.403656 
	C253.956589,323.739227 253.963745,319.072144 253.897537,314.407623 
	C253.855606,311.453644 255.300629,310.114258 258.132812,310.105927 
	C262.964172,310.091705 267.795685,310.104156 272.627075,310.121979 
	C275.315033,310.131897 276.484772,311.456970 276.408386,314.184357 
	C276.291840,318.347076 276.109894,322.535492 276.433350,326.675720 
	C276.799164,331.357330 275.274933,333.692047 269.855469,333.006165 
z"/>
<path fill="#fff" opacity="1.000000" stroke="none" 
	d="
M341.286499,326.845459 
	C341.902588,331.749023 339.818787,333.272827 335.574463,333.042206 
	C331.267181,332.808136 326.938477,332.970306 322.619171,332.953522 
	C320.004272,332.943390 318.655273,331.786926 318.706726,329.008148 
	C318.798950,324.025787 318.793823,319.039948 318.727661,314.056915 
	C318.694885,311.591461 319.792725,310.247162 322.213501,310.207611 
	C327.359741,310.123444 332.508209,310.110291 337.655090,310.151123 
	C340.406372,310.172943 341.336853,311.830139 341.290314,314.407318 
	C341.218323,318.393158 341.281494,322.381439 341.286499,326.845459 
z"/>
<path fill="#fff" opacity="1.000000" stroke="none" 
	d="
M303.812012,245.705475 
	C307.593597,245.420822 309.246735,246.789276 309.167999,250.252243 
	C309.066223,254.727890 309.045685,259.210449 309.175690,263.684662 
	C309.275757,267.128632 307.751526,268.423676 304.389282,268.311615 
	C299.750366,268.157043 295.101227,268.194397 290.459381,268.290283 
	C287.823059,268.344757 286.453888,267.539124 286.546722,264.613068 
	C286.699219,259.808167 286.685150,254.992493 286.558685,250.186157 
	C286.476379,247.058746 287.650177,245.598404 290.896698,245.696579 
	C295.039001,245.821854 299.188385,245.712296 303.812012,245.705475 
z"/>
<path fill="#fff" opacity="1.000000" stroke="none" 
	d="
M566.652222,306.081970 
	C566.066895,301.209808 567.589783,299.125000 572.387085,299.552979 
	C576.516357,299.921295 580.706360,299.695679 584.866516,299.599976 
	C587.766235,299.533234 589.203369,300.718658 589.176025,303.692078 
	C589.131714,308.519745 589.144531,313.348480 589.188965,318.176239 
	C589.213501,320.843506 588.032715,322.200073 585.305786,322.180359 
	C580.311523,322.144257 575.316589,322.108765 570.322632,322.154236 
	C567.458801,322.180267 566.587341,320.659790 566.640015,318.057587 
	C566.717407,314.229889 566.654785,310.399384 566.652222,306.081970 
z"/>
<path fill="#fff" opacity="1.000000" stroke="none" 
	d="
M544.795166,249.249146 
	C544.908081,246.378983 546.438782,245.739685 548.504333,245.738998 
	C553.483704,245.737366 558.463440,245.765854 563.442261,245.711578 
	C566.122498,245.682388 567.386108,246.827316 567.341980,249.582413 
	C567.262329,254.560577 567.282715,259.541199 567.329590,264.520203 
	C567.352234,266.926361 566.451965,268.275848 563.866150,268.253754 
	C558.721375,268.209808 553.575500,268.193634 548.430969,268.245636 
	C545.576660,268.274536 544.699829,266.755341 544.737122,264.164581 
	C544.806396,259.351959 544.766479,254.537796 544.795166,249.249146 
z"/>
<path fill="#fff" opacity="1.000000" stroke="none" 
	d="
M292.417786,160.883942 
	C287.556335,161.312119 286.150940,159.256989 286.511047,154.984055 
	C286.858276,150.864044 286.728455,146.684296 286.528412,142.544296 
	C286.384613,139.568375 287.554260,138.195206 290.464722,138.180298 
	C295.277100,138.155640 300.089600,138.144531 304.901825,138.101288 
	C308.084167,138.072678 309.293640,139.679016 309.201324,142.772949 
	C309.072601,147.084717 308.997162,151.411087 309.207031,155.716187 
	C309.402405,159.723953 307.480347,161.019516 303.818604,160.910049 
	C300.170288,160.800980 296.516113,160.886917 292.417786,160.883942 
z"/>
<path fill="#fff" opacity="1.000000" stroke="none" 
	d="
M340.967529,172.316681 
	C341.173401,178.098236 341.174103,183.426804 341.298065,188.752502 
	C341.363434,191.562805 340.435791,193.187790 337.334381,193.141159 
	C332.505371,193.068558 327.673981,193.097107 322.844269,193.147842 
	C319.916565,193.178574 318.628479,191.855118 318.692719,188.897263 
	C318.797607,184.069138 318.708038,179.237106 318.749298,174.407135 
	C318.762054,172.914658 318.736877,170.909973 320.695282,170.921234 
	C327.407776,170.959793 334.216858,169.357681 340.967529,172.316681 
z"/>
<path fill="#fff" opacity="1.000000" stroke="none" 
	d="
M394.013550,256.636047 
	C407.562897,256.879700 406.047699,254.572937 406.094757,268.340515 
	C406.136719,280.620972 406.978027,279.142975 394.976349,279.198547 
	C383.647797,279.251038 383.647552,279.206543 383.567413,268.032410 
	C383.563812,267.533203 383.566284,267.033966 383.558167,266.534821 
	C383.397491,256.646820 383.397247,256.646820 394.013550,256.636047 
z"/>
<path fill="#fff" opacity="1.000000" stroke="none" 
	d="
M473.329834,310.114868 
	C478.452881,310.073608 483.109100,310.077484 487.765198,310.056244 
	C490.833008,310.042236 492.312439,311.388885 492.217682,314.608154 
	C492.085602,319.094299 492.093933,323.591003 492.240021,328.076752 
	C492.348480,331.407440 491.062134,333.042999 487.625214,332.985413 
	C483.136444,332.910156 478.644806,332.942657 474.155334,333.000977 
	C471.158936,333.039886 469.482971,332.013306 469.596649,328.652863 
	C469.759644,323.835388 469.695892,319.007751 469.624695,314.185974 
	C469.590240,311.853577 470.281982,310.292511 473.329834,310.114868 
z"/>
<path fill="#fff" opacity="1.000000" stroke="none" 
	d="
M488.088196,236.159943 
	C480.112610,236.114578 480.111542,236.114578 480.108948,228.857986 
	C480.107605,225.039841 480.123322,221.221634 480.107666,217.403549 
	C480.096008,214.557953 481.399902,213.123932 484.331299,213.146042 
	C489.145050,213.182358 493.959503,213.127914 498.773682,213.106262 
	C501.918762,213.092117 503.219055,214.704147 503.154999,217.782578 
	C503.058289,222.429413 503.057068,227.079483 503.098175,231.727448 
	C503.126007,234.873764 501.647949,236.252853 498.530243,236.174789 
	C495.212006,236.091721 491.889954,236.158630 488.088196,236.159943 
z"/>
</svg>