<svg version="1.1" id="Layer_1" xmlns="http://www.w3.org/2000/svg" xmlns:xlink="http://www.w3.org/1999/xlink" x="0px" y="0px"
	 width="100%" viewBox="0 0 1366 768" enable-background="new 0 0 1366 768" xml:space="preserve">
<path fill="#A8A8A8" opacity="1.000000" stroke="none" 
	d="
M390.284119,611.680237 
	C378.469452,600.029785 353.027802,601.586670 346.330872,628.019226 
	C342.651459,628.268433 338.864014,628.746643 335.076324,628.748840 
	C258.083160,628.792358 181.089767,628.880493 104.096878,628.723877 
	C79.445641,628.673767 58.872150,619.793274 45.058121,598.483215 
	C38.444954,588.281433 34.841160,577.079102 34.892696,564.625122 
	C35.081642,518.963318 34.959373,473.300201 34.967484,427.637573 
	C34.967773,426.014923 35.107491,424.392303 35.177467,422.872986 
	C60.047432,417.166199 71.986244,404.492676 70.989876,384.689148 
	C70.082726,366.658630 57.943695,351.211609 35.224205,349.431091 
	C35.138264,347.756012 34.969860,345.999420 34.969425,344.242767 
	C34.957985,297.746887 34.919094,251.250931 34.982944,204.755127 
	C35.023907,174.924042 58.221931,147.697403 87.505211,143.130035 
	C92.393784,142.367569 97.399475,142.050018 102.351471,142.045959 
	C181.677750,141.980789 261.004089,142.000000 340.330414,142.000000 
	C342.310883,142.000000 344.291351,142.000000 346.723328,142.000000 
	C347.755219,150.875687 351.592896,157.993393 358.853760,162.994003 
	C364.024017,166.554810 369.832947,167.518112 375.987244,167.081436 
	C387.559357,166.260345 396.057739,157.046417 398.644531,142.000000 
	C400.332733,142.000000 402.121399,142.000000 403.910095,142.000000 
	C692.051331,142.000000 980.192505,141.958649 1268.333740,142.057877 
	C1300.509033,142.068954 1325.294678,163.598282 1331.756836,193.824234 
	C1332.546875,197.519180 1332.942871,201.370224 1332.949341,205.149902 
	C1333.029419,251.645660 1333.002686,298.141602 1333.003540,344.637482 
	C1333.003540,346.110504 1333.003540,347.583496 1333.003540,349.422028 
	C1320.866211,350.291779 1310.842163,354.720612 1303.683838,364.507812 
	C1298.228638,371.966583 1296.346924,380.324432 1296.924927,389.484314 
	C1298.030273,407.001343 1310.958984,419.238037 1332.765015,422.652771 
	C1332.840820,424.297363 1332.992798,426.059875 1332.993164,427.822418 
	C1333.005127,473.985016 1333.036377,520.147644 1332.988159,566.310181 
	C1332.954834,598.301086 1304.149170,627.618530 1272.192871,628.097290 
	C1248.212524,628.456604 1224.228394,628.748718 1200.245972,628.752808 
	C935.935974,628.798279 671.626038,628.768250 407.316071,628.872620 
	C401.821198,628.874756 397.997406,628.656189 396.808167,621.850037 
	C396.185852,618.288696 392.722168,615.223938 390.284119,611.680237 
M349.404816,168.127197 
	C346.429077,164.168304 342.980286,160.466782 340.638733,156.162842 
	C338.991760,153.135620 337.507477,151.905014 333.983032,151.909988 
	C255.656860,152.020584 177.330490,151.982513 99.004211,152.043991 
	C95.212639,152.046967 91.330963,152.295517 87.644875,153.118118 
	C62.333309,158.766541 44.977695,181.128418 44.979488,204.670471 
	C44.982849,248.833099 44.955681,292.995728 44.956848,337.158356 
	C44.956879,338.300690 45.137947,339.443024 45.228664,340.515320 
	C68.058769,346.780273 79.207901,364.088776 80.931061,382.045563 
	C81.904350,392.188049 79.584335,401.784973 74.136147,410.549438 
	C67.311607,421.528015 57.283863,428.095337 44.944660,431.582184 
	C44.944660,432.884918 44.944317,433.873688 44.944710,434.862457 
	C44.962063,478.525055 44.943317,522.187805 45.060863,565.850098 
	C45.071011,569.619629 45.659203,573.463257 46.529228,577.142334 
	C51.462128,598.002136 71.463005,618.513306 101.927368,618.344421 
	C179.584702,617.913818 257.246033,618.187561 334.905701,618.257324 
	C337.871674,618.259949 339.456604,617.567810 340.996063,614.687256 
	C347.210266,603.059631 357.090302,596.047791 370.282196,595.107605 
	C385.012085,594.057800 396.523010,600.493896 403.835297,613.220398 
	C406.255890,617.433228 408.782318,618.289490 413.153748,618.288025 
	C697.294983,618.193298 981.436218,618.208862 1265.577515,618.150574 
	C1270.529785,618.149536 1275.549194,617.750366 1280.422607,616.888916 
	C1303.360962,612.834351 1322.884888,589.633606 1322.952393,566.217651 
	C1323.078247,522.555359 1323.013062,478.892456 1323.027344,435.229797 
	C1323.027710,434.080200 1323.027466,432.930603 1323.027466,431.891785 
	C1300.726074,423.985321 1287.335815,407.817810 1286.873047,389.489166 
	C1286.595215,378.481110 1288.720215,368.422913 1295.081421,359.349792 
	C1301.950562,349.552490 1311.432373,343.564636 1323.027466,340.383331 
	C1323.027466,339.046082 1323.027588,337.892303 1323.027466,336.738525 
	C1323.024048,293.575745 1323.044556,250.412903 1322.973022,207.250229 
	C1322.966919,203.624878 1322.605347,199.952621 1321.959717,196.383423 
	C1317.420532,171.288971 1295.513550,152.107956 1269.759277,152.093765 
	C983.784912,151.936142 697.810364,151.999039 411.835938,151.925690 
	C408.587219,151.924850 406.988068,152.766800 405.532257,155.889908 
	C395.264771,177.916519 368.850464,183.862061 349.404816,168.127197 
z"/>
<path fill="#454545" opacity="1.000000" stroke="none" 
	d="
M349.667023,168.371918 
	C368.850464,183.862061 395.264771,177.916519 405.532257,155.889908 
	C406.988068,152.766800 408.587219,151.924850 411.835938,151.925690 
	C697.810364,151.999039 983.784912,151.936142 1269.759277,152.093765 
	C1295.513550,152.107956 1317.420532,171.288971 1321.959717,196.383423 
	C1322.605347,199.952621 1322.966919,203.624878 1322.973022,207.250229 
	C1323.044556,250.412903 1323.024048,293.575745 1323.027466,336.738525 
	C1323.027588,337.892303 1323.027466,339.046082 1323.027466,340.383331 
	C1311.432373,343.564636 1301.950562,349.552490 1295.081421,359.349792 
	C1288.720215,368.422913 1286.595215,378.481110 1286.873047,389.489166 
	C1287.335815,407.817810 1300.726074,423.985321 1323.027466,431.891785 
	C1323.027466,432.930603 1323.027710,434.080200 1323.027344,435.229797 
	C1323.013062,478.892456 1323.078247,522.555359 1322.952393,566.217651 
	C1322.884888,589.633606 1303.360962,612.834351 1280.422607,616.888916 
	C1275.549194,617.750366 1270.529785,618.149536 1265.577515,618.150574 
	C981.436218,618.208862 697.294983,618.193298 413.153748,618.288025 
	C408.782318,618.289490 406.255890,617.433228 403.835297,613.220398 
	C396.523010,600.493896 385.012085,594.057800 370.282196,595.107605 
	C357.090302,596.047791 347.210266,603.059631 340.996063,614.687256 
	C339.456604,617.567810 337.871674,618.259949 334.905701,618.257324 
	C257.246033,618.187561 179.584702,617.913818 101.927368,618.344421 
	C71.463005,618.513306 51.462128,598.002136 46.529228,577.142334 
	C45.659203,573.463257 45.071011,569.619629 45.060863,565.850098 
	C44.943317,522.187805 44.962063,478.525055 44.944710,434.862457 
	C44.944317,433.873688 44.944660,432.884918 44.944660,431.582184 
	C57.283863,428.095337 67.311607,421.528015 74.136147,410.549438 
	C79.584335,401.784973 81.904350,392.188049 80.931061,382.045563 
	C79.207901,364.088776 68.058769,346.780273 45.228664,340.515320 
	C45.137947,339.443024 44.956879,338.300690 44.956848,337.158356 
	C44.955681,292.995728 44.982849,248.833099 44.979488,204.670471 
	C44.977695,181.128418 62.333309,158.766541 87.644875,153.118118 
	C91.330963,152.295517 95.212639,152.046967 99.004211,152.043991 
	C177.330490,151.982513 255.656860,152.020584 333.983032,151.909988 
	C337.507477,151.905014 338.991760,153.135620 340.638733,156.162842 
	C342.980286,160.466782 346.429077,164.168304 349.667023,168.371918 
M367.983368,280.673096 
	C367.983368,285.937775 367.983368,291.202423 367.983368,296.600037 
	C371.604340,296.600037 374.629517,296.600037 377.718262,296.600037 
	C377.718262,289.649170 377.718262,283.091461 377.718262,276.016693 
	C375.293823,276.016693 373.168213,276.148499 371.065582,275.984955 
	C368.114899,275.755524 367.809021,277.489441 367.983368,280.673096 
M374.376465,475.011963 
	C372.431244,475.011963 370.486053,475.011963 368.352173,475.011963 
	C368.352173,482.258087 368.352173,488.944641 368.352173,495.697327 
	C371.639709,495.697327 374.554565,495.697327 377.998810,495.697327 
	C377.998810,489.315399 378.089081,483.213257 377.880035,477.121429 
	C377.855011,476.392059 376.202972,475.718536 374.376465,475.011963 
M368.024506,317.827332 
	C368.024506,324.060394 368.024506,330.293457 368.024506,336.977783 
	C370.660706,336.977783 372.823395,337.259857 374.856140,336.868011 
	C376.006134,336.646301 377.799683,335.354950 377.837585,334.481781 
	C378.099518,328.447235 377.975525,322.395966 377.975525,315.590179 
	C374.185547,316.103119 371.194183,316.507996 368.024506,317.827332 
M378.028229,373.151947 
	C378.028229,367.575562 378.028229,361.999207 378.028229,356.365356 
	C374.357574,356.365356 371.330048,356.365356 368.409546,356.365356 
	C368.409546,363.432343 368.409546,370.113647 368.409546,376.747711 
	C376.239716,377.285400 376.239716,377.285400 378.028229,373.151947 
M374.378143,515.010071 
	C372.322418,515.010071 370.266724,515.010071 368.282013,515.010071 
	C368.282013,522.447266 368.282013,528.998535 368.282013,535.775757 
	C369.686096,535.859863 370.820557,535.848022 371.930206,536.008179 
	C376.642242,536.688232 378.587097,534.870728 378.106354,529.979248 
	C377.736145,526.212524 378.254059,522.359680 377.905853,518.588684 
	C377.789520,517.328979 376.215515,516.203796 374.378143,515.010071 
M376.265869,555.015625 
	C373.667297,555.015625 371.068695,555.015625 368.318726,555.015625 
	C368.318726,562.247375 368.318726,568.934753 368.318726,575.982971 
	C370.609680,575.982971 372.619598,576.242615 374.515717,575.890137 
	C375.743835,575.661804 377.786224,574.541504 377.788055,573.816711 
	C377.803772,567.610352 377.436432,561.402954 376.265869,555.015625 
M367.984589,206.516388 
	C367.984589,209.932556 367.984589,213.348724 367.984589,216.653564 
	C371.728516,216.653564 374.766388,216.653564 377.758057,216.653564 
	C377.758057,209.995392 377.758057,203.755188 377.758057,197.340729 
	C374.449371,197.340729 371.415619,197.340729 367.984558,197.340729 
	C367.984558,200.289001 367.984558,202.912003 367.984589,206.516388 
M378.029358,251.380005 
	C378.029358,246.654312 378.029358,241.928635 378.029358,237.295197 
	C374.294861,237.295197 371.376099,237.295197 368.306152,237.295197 
	C368.306152,243.934113 368.306152,250.283722 368.306152,256.830170 
	C371.544189,256.830170 374.458740,256.830170 377.719452,256.830170 
	C377.830597,255.221695 377.929962,253.783646 378.029358,251.380005 
M375.331848,396.013580 
	C373.059998,396.013580 370.788147,396.013580 368.293732,396.013580 
	C368.293732,402.883270 368.293732,409.232727 368.293732,415.656158 
	C371.639282,415.656158 374.669830,415.656158 378.016052,415.656158 
	C378.016052,409.683350 378.087280,404.072418 377.937805,398.467346 
	C377.915863,397.645660 376.844482,396.851929 375.331848,396.013580 
M372.531555,456.036835 
	C374.268402,456.036835 376.005249,456.036835 377.772858,456.036835 
	C377.772858,449.000946 377.772858,442.771576 377.772858,436.322968 
	C374.481842,436.322968 371.451416,436.322968 367.996735,436.322968 
	C367.996735,442.227997 367.831024,447.834656 368.158478,453.412323 
	C368.213593,454.350891 370.399750,455.164337 372.531555,456.036835 
z"/>
<path fill="#A9A9A9" opacity="1.000000" stroke="none" 
	d="
M367.983765,280.198029 
	C367.809021,277.489441 368.114899,275.755524 371.065582,275.984955 
	C373.168213,276.148499 375.293823,276.016693 377.718262,276.016693 
	C377.718262,283.091461 377.718262,289.649170 377.718262,296.600037 
	C374.629517,296.600037 371.604340,296.600037 367.983368,296.600037 
	C367.983368,291.202423 367.983368,285.937775 367.983765,280.198029 
z"/>
<path fill="#A9A9A9" opacity="1.000000" stroke="none" 
	d="
M374.840759,475.015564 
	C376.202972,475.718536 377.855011,476.392059 377.880035,477.121429 
	C378.089081,483.213257 377.998810,489.315399 377.998810,495.697327 
	C374.554565,495.697327 371.639709,495.697327 368.352173,495.697327 
	C368.352173,488.944641 368.352173,482.258087 368.352173,475.011963 
	C370.486053,475.011963 372.431244,475.011963 374.840759,475.015564 
z"/>
<path fill="#A9A9A9" opacity="1.000000" stroke="none" 
	d="
M368.113647,317.370117 
	C371.194183,316.507996 374.185547,316.103119 377.975525,315.590179 
	C377.975525,322.395966 378.099518,328.447235 377.837585,334.481781 
	C377.799683,335.354950 376.006134,336.646301 374.856140,336.868011 
	C372.823395,337.259857 370.660706,336.977783 368.024506,336.977783 
	C368.024506,330.293457 368.024506,324.060394 368.113647,317.370117 
z"/>
<path fill="#AAAAAA" opacity="1.000000" stroke="none" 
	d="
M378.020508,373.614838 
	C376.239716,377.285400 376.239716,377.285400 368.409546,376.747711 
	C368.409546,370.113647 368.409546,363.432343 368.409546,356.365356 
	C371.330048,356.365356 374.357574,356.365356 378.028229,356.365356 
	C378.028229,361.999207 378.028229,367.575562 378.020508,373.614838 
z"/>
<path fill="#A9A9A9" opacity="1.000000" stroke="none" 
	d="
M374.842987,515.013611 
	C376.215515,516.203796 377.789520,517.328979 377.905853,518.588684 
	C378.254059,522.359680 377.736145,526.212524 378.106354,529.979248 
	C378.587097,534.870728 376.642242,536.688232 371.930206,536.008179 
	C370.820557,535.848022 369.686096,535.859863 368.282013,535.775757 
	C368.282013,528.998535 368.282013,522.447266 368.282013,515.010071 
	C370.266724,515.010071 372.322418,515.010071 374.842987,515.013611 
z"/>
<path fill="#AAAAAA" opacity="1.000000" stroke="none" 
	d="
M376.724762,555.105774 
	C377.436432,561.402954 377.803772,567.610352 377.788055,573.816711 
	C377.786224,574.541504 375.743835,575.661804 374.515717,575.890137 
	C372.619598,576.242615 370.609680,575.982971 368.318726,575.982971 
	C368.318726,568.934753 368.318726,562.247375 368.318726,555.015625 
	C371.068695,555.015625 373.667297,555.015625 376.724762,555.105774 
z"/>
<path fill="#ABABAB" opacity="1.000000" stroke="none" 
	d="
M367.984558,206.025696 
	C367.984558,202.912003 367.984558,200.289001 367.984558,197.340729 
	C371.415619,197.340729 374.449371,197.340729 377.758057,197.340729 
	C377.758057,203.755188 377.758057,209.995392 377.758057,216.653564 
	C374.766388,216.653564 371.728516,216.653564 367.984589,216.653564 
	C367.984589,213.348724 367.984589,209.932556 367.984558,206.025696 
z"/>
<path fill="#AAAAAA" opacity="1.000000" stroke="none" 
	d="
M378.029358,251.862793 
	C377.929962,253.783646 377.830597,255.221695 377.719452,256.830170 
	C374.458740,256.830170 371.544189,256.830170 368.306152,256.830170 
	C368.306152,250.283722 368.306152,243.934113 368.306152,237.295197 
	C371.376099,237.295197 374.294861,237.295197 378.029358,237.295197 
	C378.029358,241.928635 378.029358,246.654312 378.029358,251.862793 
z"/>
<path fill="#AAAAAA" opacity="1.000000" stroke="none" 
	d="
M375.795288,396.029419 
	C376.844482,396.851929 377.915863,397.645660 377.937805,398.467346 
	C378.087280,404.072418 378.016052,409.683350 378.016052,415.656158 
	C374.669830,415.656158 371.639282,415.656158 368.293732,415.656158 
	C368.293732,409.232727 368.293732,402.883270 368.293732,396.013580 
	C370.788147,396.013580 373.059998,396.013580 375.795288,396.029419 
z"/>
<path fill="#AAAAAA" opacity="1.000000" stroke="none" 
	d="
M372.066406,456.036224 
	C370.399750,455.164337 368.213593,454.350891 368.158478,453.412323 
	C367.831024,447.834656 367.996735,442.227997 367.996735,436.322968 
	C371.451416,436.322968 374.481842,436.322968 377.772858,436.322968 
	C377.772858,442.771576 377.772858,449.000946 377.772858,456.036835 
	C376.005249,456.036835 374.268402,456.036835 372.066406,456.036224 
z"/>
</svg>