<svg version="1.1" id="Layer_1" xmlns="http://www.w3.org/2000/svg" xmlns:xlink="http://www.w3.org/1999/xlink" x="0px" y="0px"
	 width="100%" viewBox="0 0 1024 560" enable-background="new 0 0 1024 560" xml:space="preserve">
<path fill="#FFF" opacity="1.000000" stroke="none" 
	d="
M402.461182,475.533325 
	C369.288879,442.472473 336.296387,409.729004 303.476074,376.813873 
	C287.193939,360.484680 287.752167,340.864075 304.231659,324.483093 
	C367.921844,261.173584 431.512817,197.764252 495.182220,134.433823 
	C529.437195,100.361214 563.769409,66.366264 598.082458,32.352039 
	C606.658997,23.850126 611.846497,23.911676 620.446594,32.463520 
	C624.345398,36.340424 628.342712,40.120682 632.171082,44.065338 
	C637.263550,49.312485 637.568665,54.797695 633.281738,60.686928 
	C629.291016,66.169235 629.161316,71.876740 632.942261,75.626778 
	C637.052551,79.703468 641.836487,79.717361 647.843994,75.670097 
	C654.726807,71.033150 659.648560,71.548592 665.594666,77.496651 
	C669.363831,81.267029 673.146729,85.023918 676.945312,88.764679 
	C684.496338,96.200859 684.847900,99.788971 678.859558,108.716560 
	C674.358948,115.426277 677.215454,123.263855 684.842590,125.259476 
	C688.273865,126.157265 691.001343,124.735825 693.663147,122.885704 
	C701.631531,117.347229 706.147583,117.810707 712.928406,124.735687 
	C716.890930,128.782532 721.002441,132.685013 724.919983,136.774048 
	C730.537354,142.637192 730.862854,147.539413 726.284424,154.205170 
	C722.283569,160.029953 722.342163,165.083847 726.455994,169.024460 
	C730.413513,172.815353 735.762451,172.687531 741.422729,168.666809 
	C747.543457,164.319016 752.996155,164.774506 758.393738,170.159744 
	C762.639343,174.395645 766.799805,178.716919 771.047424,182.950714 
	C777.773438,189.654800 777.947021,195.537064 771.181763,202.387573 
	C756.078735,217.680649 740.863403,232.862869 725.682861,248.079361 
	C653.310791,320.622681 580.930359,393.157593 508.565918,465.708435 
	C497.742096,476.560089 487.053986,487.547699 476.184235,498.352875 
	C460.584747,513.859558 440.988281,513.868042 425.304291,498.425568 
	C417.706665,490.944916 410.238708,483.332581 402.461182,475.533325 
M552.153625,110.653793 
	C474.907196,187.535309 397.660645,264.416687 320.414581,341.298553 
	C313.057617,348.620819 313.003967,353.518555 320.265533,360.782623 
	C345.950470,386.476410 371.646301,412.159271 397.341675,437.842621 
	C412.075165,452.569305 426.785919,467.318939 441.566742,481.998016 
	C447.857544,488.245483 452.952271,488.219666 459.301636,482.158478 
	C460.145142,481.353241 460.958740,480.516479 461.782501,479.690643 
	C555.339844,385.894043 648.898560,292.098785 742.439636,198.285919 
	C744.036133,196.684814 746.200317,195.497665 746.840576,192.836319 
	C746.226501,192.896378 745.742188,192.862381 745.310852,192.997498 
	C715.797363,202.243774 692.559143,174.788193 701.859680,150.283142 
	C703.397888,146.230362 702.170044,145.416626 697.554871,146.636765 
	C681.371765,150.915176 667.317993,146.118637 658.941956,133.316895 
	C652.979980,124.204788 652.202637,114.399033 655.356079,104.114098 
	C656.627747,99.966400 655.556641,98.914604 651.348816,99.959511 
	C650.379333,100.200249 649.425476,100.504265 648.455444,100.742584 
	C623.460388,106.883369 601.557556,84.802101 608.001587,59.958092 
	C608.412598,58.373459 608.872498,56.801491 609.309631,55.223637 
	C608.853577,54.990204 608.397583,54.756771 607.941589,54.523338 
	C589.511963,73.066544 571.082397,91.609741 552.153625,110.653793 
z"/>
<path fill="#FFF" opacity="1.000000" stroke="none" 
	d="
M686.857849,498.933472 
	C687.422058,485.101715 693.189087,474.922668 705.233643,468.581696 
	C706.641663,467.840424 708.599243,467.449249 708.509338,465.291351 
	C708.431519,463.421570 706.652893,463.113800 705.392822,462.417419 
	C693.406006,455.793304 686.831970,445.553955 687.014771,431.964020 
	C687.191284,418.837128 693.470276,408.783356 705.382263,402.612610 
	C706.670288,401.945374 708.346375,401.540802 708.511108,399.717712 
	C708.687927,397.760498 706.979370,397.328766 705.698792,396.661591 
	C680.947205,383.766296 680.451965,349.068268 706.016174,336.330292 
	C706.583923,336.047394 707.074951,335.610596 707.775269,335.125366 
	C705.916199,333.830292 704.050049,334.378296 702.314941,334.343109 
	C697.318115,334.241669 692.305847,334.495331 687.323181,334.204987 
	C680.896545,333.830536 676.204407,328.998230 675.970215,323.002777 
	C675.755920,317.516998 680.251343,312.173950 686.442688,311.506805 
	C695.396362,310.542053 704.414978,311.154327 713.406677,311.250061 
	C714.571045,311.262482 715.736084,311.397522 716.898621,311.372986 
	C727.526367,311.148712 732.106140,315.621735 732.157837,326.361938 
	C732.184326,331.860626 732.260742,337.362732 732.111450,342.857788 
	C731.897095,350.749908 728.328979,354.812225 720.658813,356.231812 
	C713.619324,357.534637 710.144836,361.077576 710.276978,366.817993 
	C710.404724,372.362091 713.882202,375.771362 720.594238,376.932678 
	C728.086975,378.229126 731.824829,382.179474 732.094849,389.701599 
	C732.327820,396.191772 732.304016,402.701965 732.101379,409.194183 
	C731.863708,416.808350 728.247559,420.733490 720.747009,422.066925 
	C713.369690,423.378418 710.244812,426.470764 710.268982,432.435913 
	C710.292542,438.253601 713.835632,441.751434 720.797791,442.830109 
	C727.797058,443.914581 731.740784,447.990662 732.067749,455.304962 
	C732.372559,462.122345 732.344055,468.974518 732.046997,475.793274 
	C731.754822,482.500732 728.503479,485.932495 721.861023,487.470703 
	C720.725342,487.733734 719.583862,487.974976 718.456970,488.271637 
	C712.894287,489.736053 710.135864,493.250092 710.275574,498.667175 
	C710.408813,503.832611 713.547729,507.795197 719.198975,508.379181 
	C728.849915,509.376526 732.379578,514.789062 732.186340,524.434509 
	C732.076233,529.931274 732.310913,535.437744 732.107544,540.929382 
	C731.796570,549.323853 727.563538,553.311707 719.160400,553.312317 
	C572.856140,553.323303 426.551880,553.329590 280.247620,553.309082 
	C262.853699,553.306641 247.948654,538.927307 247.881989,521.165710 
	C247.660004,462.011658 247.679153,402.855865 247.885056,343.701691 
	C247.946487,326.050446 262.808441,311.728363 280.279602,311.496948 
	C287.292389,311.404022 291.978546,315.388519 292.551849,321.931610 
	C293.083862,328.003418 289.025024,332.974487 282.536102,334.198425 
	C273.178040,335.963501 271.062927,338.428680 271.060242,347.867615 
	C271.044189,404.189606 271.041595,460.511627 271.056519,516.833618 
	C271.059326,527.373169 274.326202,530.644409 284.734711,530.644836 
	C423.540497,530.650818 562.346252,530.650635 701.152039,530.651978 
	C703.262207,530.651978 705.372314,530.652039 707.482483,530.652039 
	C695.399963,523.363403 687.873596,513.558716 686.857849,498.933472 
z"/>
<path fill="#FFF" opacity="1.000000" stroke="none" 
	d="
M367.925476,478.511017 
	C366.101227,484.521271 362.033173,487.626099 356.428009,487.800171 
	C345.953491,488.125488 335.457977,487.977295 324.976807,487.757172 
	C322.010468,487.694855 319.069092,486.727936 316.958649,484.233734 
	C314.070770,480.820831 312.785309,477.012421 314.298401,472.661011 
	C316.028992,467.684052 319.967834,465.028381 324.921936,464.874664 
	C335.571960,464.544250 346.249817,464.493469 356.896332,464.879303 
	C364.263306,465.146301 367.937714,469.984131 367.925476,478.511017 
z"/>
<path fill="#FFF" opacity="1.000000" stroke="none" 
	d="
M334.730591,420.735718 
	C343.431335,421.606537 347.909729,426.184052 347.534027,433.359467 
	C347.201843,439.703278 342.035461,444.034241 334.346466,444.161011 
	C330.710724,444.220947 327.044556,444.564606 323.428497,443.726685 
	C317.251160,442.295288 313.444427,437.597778 313.727081,431.690491 
	C313.999664,425.992523 318.532074,421.431946 324.811523,420.863495 
	C327.943390,420.579987 331.117249,420.759827 334.730591,420.735718 
z"/>
<path fill="#FFF" opacity="1.000000" stroke="none" 
	d="
M419.133484,304.133087 
	C447.898376,275.394928 476.407745,246.901230 504.937714,218.428192 
	C506.463806,216.905197 508.027222,215.351257 509.808899,214.165955 
	C514.524780,211.028519 520.590088,211.784103 524.416565,215.776428 
	C528.053650,219.571121 528.539429,225.504456 525.434448,230.042969 
	C524.410645,231.539444 523.099731,232.860321 521.809143,234.150482 
	C476.928040,279.019470 432.034943,323.876495 387.134521,368.726196 
	C385.840973,370.018280 384.566528,371.378143 383.083252,372.422546 
	C378.377106,375.736298 372.311462,375.294373 368.408936,371.502808 
	C364.208832,367.422150 363.668915,361.479614 367.138977,356.488403 
	C367.986938,355.268768 369.058136,354.188599 370.114258,353.131775 
	C386.361755,336.873260 402.623749,320.629272 419.133484,304.133087 
z"/>
<path fill="#FFF" opacity="1.000000" stroke="none" 
	d="
M501.497070,316.497467 
	C473.321533,344.625458 445.401306,372.508759 417.465240,400.376221 
	C412.424652,405.404449 407.557648,406.746399 402.722473,404.564362 
	C394.951141,401.057281 393.616730,391.648529 400.120209,385.107788 
	C414.206329,370.941040 428.382599,356.863892 442.521942,342.750031 
	C473.628571,311.699402 504.735046,280.648590 535.842224,249.598526 
	C536.667053,248.775223 537.472900,247.930481 538.332703,247.145142 
	C543.916382,242.045105 550.458618,241.866730 555.286438,246.666183 
	C559.815430,251.168549 559.582397,258.354370 554.361145,263.612793 
	C536.882141,281.216309 519.293579,298.710999 501.497070,316.497467 
z"/>
<path fill="#FFF" opacity="1.000000" stroke="none" 
	d="
M503.701355,343.701477 
	C512.565491,334.863007 521.118469,326.211517 529.831848,317.724701 
	C534.154724,313.514191 538.920959,312.789215 543.522095,315.348755 
	C548.085022,317.887024 549.892883,321.928650 549.485535,327.062622 
	C549.261230,329.889130 547.842896,332.083923 545.911682,334.014679 
	C512.914429,367.003723 479.936340,400.011993 446.889984,432.951813 
	C442.020782,437.805298 434.887604,437.778839 430.325195,433.273468 
	C425.520447,428.528778 425.594788,421.831696 430.978485,416.405243 
	C449.286316,397.951752 467.720795,379.623871 486.110413,361.251526 
	C491.886658,355.480713 497.674103,349.721130 503.701355,343.701477 
z"/>
</svg>