<svg version="1.1" id="Layer_1" xmlns="http://www.w3.org/2000/svg" xmlns:xlink="http://www.w3.org/1999/xlink" x="0px" y="0px"
	 width="100%" viewBox="240 0 560 560" enable-background="new 0 0 1024 560" xml:space="preserve">
<path fill="#FFF" opacity="1.000000" stroke="none" 
	d="
M274.814514,316.781982 
	C337.767426,270.173157 400.441895,223.787750 463.089722,177.366364 
	C512.482971,140.766479 561.834595,104.110420 611.226501,67.508682 
	C620.326294,60.765285 627.018433,61.834988 633.765015,70.923027 
	C647.668396,89.651711 661.590454,108.366539 675.456299,127.122925 
	C682.587036,136.768585 682.125183,141.135101 673.328918,149.436996 
	C654.250244,167.443344 660.077637,197.343353 684.438599,205.631592 
	C694.423584,209.028732 704.103271,207.786469 713.152893,202.092865 
	C722.171570,196.418701 727.749207,197.479858 734.084167,205.976410 
	C748.325806,225.077255 762.599243,244.154999 776.721008,263.344269 
	C783.543701,272.615356 782.554260,278.359131 773.205261,285.290985 
	C702.284607,337.875305 631.331421,390.415741 560.412964,443.002930 
	C523.217651,470.583832 486.077179,498.238647 448.900024,525.844055 
	C438.468933,533.589478 428.011414,541.299622 417.536102,548.985229 
	C409.929626,554.565979 402.739807,553.537476 397.163025,546.048523 
	C382.734467,526.672791 368.332733,507.277100 353.942230,487.873108 
	C347.559509,479.266754 348.090027,473.874695 355.939575,466.632080 
	C372.929840,450.955444 371.695038,426.046570 353.025208,413.899750 
	C341.544708,406.430450 329.469330,406.287964 317.587738,413.202545 
	C306.842957,419.455475 302.267822,418.569824 294.921143,408.616791 
	C281.266510,390.118011 267.535706,371.675323 253.799438,353.236969 
	C246.271606,343.132294 247.122360,337.217590 257.253510,329.781219 
	C263.028687,325.542175 268.768677,321.255219 274.814514,316.781982 
M646.849060,206.560379 
	C632.918152,184.769516 633.432373,161.082077 648.533508,139.704041 
	C650.412170,137.044418 650.465088,135.282730 648.531616,132.720963 
	C639.297852,120.486305 630.238770,108.119904 621.104858,95.809738 
	C620.426453,94.895432 619.838013,93.803230 618.080750,93.793068 
	C616.971252,94.574173 615.596802,95.498375 614.267883,96.483971 
	C593.128174,112.162025 572.058044,127.935356 550.798950,143.449707 
	C547.068481,146.172104 545.559143,148.031586 548.769348,152.399323 
	C551.904602,156.665039 550.545410,161.960129 546.683899,164.858673 
	C542.632935,167.899445 538.063354,167.409760 534.029297,163.636108 
	C532.611450,162.309814 532.013000,160.112152 529.166687,159.410370 
	C446.050110,221.049362 362.627563,282.915283 279.345276,344.677185 
	C279.782623,345.894043 279.848602,346.429260 280.128479,346.805359 
	C289.675354,359.635284 299.299194,372.408447 308.760254,385.301147 
	C310.717773,387.968689 312.701050,387.538513 315.259918,386.639130 
	C325.023071,383.207672 335.042114,382.147156 345.235992,384.227753 
	C387.895355,392.934570 406.685822,439.963959 381.625397,475.584229 
	C379.318970,478.862579 379.645844,480.826385 381.874390,483.757874 
	C390.847412,495.561157 399.577606,507.548920 408.421265,519.450867 
	C409.186218,520.480347 409.757751,521.819153 411.670807,521.959961 
	C412.822876,521.150879 414.197693,520.230652 415.525055,519.246521 
	C449.920868,493.744324 484.301453,468.221588 518.706055,442.731232 
	C565.292786,408.215149 611.881836,373.702271 658.533447,339.274109 
	C661.233215,337.281738 661.890869,335.842072 659.814087,332.887939 
	C656.057800,327.544983 656.596375,322.351257 660.710205,319.107483 
	C665.312988,315.478149 670.599121,316.304413 674.997559,321.824799 
	C677.040222,324.388519 678.474609,324.549316 681.060974,322.612518 
	C703.198669,306.035278 725.394470,289.534790 747.661865,273.132202 
	C750.348145,271.153442 750.452454,269.697205 748.506775,267.123169 
	C739.364075,255.027924 730.321960,242.854889 721.394531,230.599915 
	C719.512512,228.016525 717.894653,227.552811 714.795593,228.687042 
	C689.647278,237.891083 662.713806,229.208984 646.849060,206.560379 
z"/>
<path fill="#FFF" opacity="1.000000" stroke="none" 
	d="
M375.548035,174.600769 
	C400.608795,126.570839 425.503754,78.874222 450.420898,31.189207 
	C456.308594,19.921734 461.888672,18.122881 473.042816,23.931175 
	C493.874359,34.778732 514.688965,45.658962 535.484680,56.574905 
	C544.778442,61.453297 546.794617,66.607979 542.873840,76.128159 
	C539.658936,83.934265 538.740295,91.657501 541.138733,99.948425 
	C543.345093,107.575348 539.437195,114.095146 532.422852,115.889664 
	C525.804871,117.582779 519.482910,113.728088 517.216675,106.322960 
	C514.442871,97.259354 513.886475,88.024155 515.802734,78.696419 
	C516.217896,76.675171 516.610229,74.831642 514.209229,73.585396 
	C499.303314,65.848351 484.433075,58.042664 468.973663,49.957829 
	C465.794800,55.940571 462.821533,61.452885 459.923981,67.004707 
	C449.674377,86.643425 439.495514,106.319283 429.172241,125.919113 
	C427.480865,129.130371 426.869263,131.245224 430.760773,133.543030 
	C435.247742,136.192459 436.221191,141.091721 434.075623,145.300003 
	C431.817352,149.729340 427.157104,151.864090 422.210205,149.726746 
	C418.096344,147.949326 416.764435,149.642563 415.082001,152.888687 
	C400.289795,181.428787 385.372559,209.904129 370.468140,238.385986 
	C367.032898,244.950684 361.718597,247.990509 356.155365,246.708450 
	C346.953552,244.587860 343.452972,236.003143 348.231110,226.714767 
	C355.545868,212.495438 363.028717,198.362564 370.450806,184.198547 
	C372.074554,181.099869 373.742676,178.024460 375.548035,174.600769 
z"/>
<path fill="#FFF" opacity="1.000000" stroke="none" 
	d="
M340.749939,434.574829 
	C345.483826,432.179474 350.077576,431.564545 354.539429,433.778076 
	C358.893219,435.937988 361.124817,439.828705 361.278992,444.687653 
	C361.437714,449.689087 358.950226,453.684601 354.656433,455.604401 
	C346.103394,459.428436 339.785309,465.244263 334.896332,473.206116 
	C331.424164,478.860565 324.851257,479.891846 317.977386,476.484619 
	C308.881744,471.975983 299.935486,467.165680 290.929688,462.476044 
	C278.233063,455.864563 265.535126,449.255463 252.848343,442.625153 
	C243.450073,437.713470 241.488983,431.589264 246.320618,422.089508 
	C249.791550,415.265076 253.253052,408.432404 256.904755,401.704346 
	C260.726837,394.662445 267.691986,392.249054 274.138306,395.490875 
	C280.382446,398.631012 282.439606,405.913544 279.109100,413.089325 
	C279.039062,413.240204 278.955536,413.385315 278.892639,413.539001 
	C277.340790,417.331604 273.010071,421.036987 274.412628,424.673309 
	C275.759979,428.166504 281.132690,429.048859 284.768585,430.992706 
	C295.484283,436.721588 306.345825,442.177979 317.055359,447.918091 
	C319.693268,449.331970 321.443268,449.273132 323.494263,446.931000 
	C328.169189,441.592438 334.128571,437.916870 340.749939,434.574829 
z"/>
<path fill="#FFF" opacity="1.000000" stroke="none" 
	d="
M453.067871,547.026062 
	C447.789825,543.505737 444.937866,539.088989 446.300446,532.928467 
	C447.503693,527.488342 451.678802,523.939636 457.059967,523.236755 
	C460.186554,522.828308 463.039612,523.764771 465.625122,525.296936 
	C468.728943,527.136230 470.303467,526.170410 471.727905,523.113586 
	C474.112427,517.996399 476.764923,512.996887 479.469940,508.038025 
	C483.460449,500.722656 490.403534,498.312531 497.004333,501.791626 
	C503.379822,505.151917 505.300079,512.127747 501.615692,519.391724 
	C496.580231,529.319397 491.451141,539.201355 486.223724,549.029236 
	C482.487061,556.054443 475.631378,558.299988 468.494629,554.891357 
	C463.398071,552.457153 458.418915,549.777283 453.067871,547.026062 
z"/>
<path fill="#FFF" opacity="1.000000" stroke="none" 
	d="
M463.585236,150.330109 
	C468.682037,154.568756 469.913513,159.660339 467.153259,163.995605 
	C464.473206,168.204910 459.438721,169.269257 453.939056,166.630844 
	C451.557892,165.488480 449.128265,164.300888 447.050140,162.704849 
	C443.265442,159.798157 442.323425,154.587601 444.514709,150.633133 
	C446.669769,146.743973 451.585938,144.965973 456.116730,146.681717 
	C458.583496,147.615860 460.892975,148.965179 463.585236,150.330109 
z"/>
<path fill="#FFF" opacity="1.000000" stroke="none" 
	d="
M617.626770,276.347229 
	C614.668762,272.290894 611.805298,268.601501 609.200745,264.737549 
	C605.720825,259.574890 606.525269,254.341736 611.062378,251.137009 
	C615.083740,248.296555 620.895874,249.237411 624.384460,253.732819 
	C630.305664,261.362885 635.977356,269.186646 641.746765,276.934326 
	C643.935181,279.873138 646.155640,282.790070 648.270447,285.781311 
	C652.141724,291.256836 651.796143,296.659576 647.442993,299.999084 
	C642.792908,303.566406 637.497986,302.579163 633.152771,297.002258 
	C627.932922,290.302795 622.932190,283.432709 617.626770,276.347229 
z"/>
<path fill="#FFF" opacity="1.000000" stroke="none" 
	d="
M592.873169,211.170746 
	C595.052002,214.141815 597.176575,216.725250 598.941650,219.534531 
	C601.771179,224.037994 600.781067,229.664902 596.899414,232.516449 
	C592.867004,235.478729 587.297974,235.021423 583.953125,230.697189 
	C575.305481,219.517426 566.826050,208.198898 558.594910,196.709717 
	C555.226135,192.007477 556.538818,186.486404 560.895264,183.531067 
	C565.243958,180.580963 570.513245,181.412918 574.139709,186.104996 
	C580.444702,194.262527 586.498535,202.614182 592.873169,211.170746 
z"/>
</svg>